<?xml version="1.0" encoding="UTF-8"?>
<svg version="1.1" xmlns="http://www.w3.org/2000/svg" width="225" height="225">
<path d="M0 0 C5.08707701 4.60791748 8.07208299 9.89607581 10.48828125 16.25390625 C12.26534334 13.58831312 13.36376398 11.22584475 14.48828125 8.25390625 C15.14828125 8.25390625 15.80828125 8.25390625 16.48828125 8.25390625 C16.79765625 7.63515625 17.10703125 7.01640625 17.42578125 6.37890625 C18.11328125 5.00390625 18.80078125 3.62890625 19.48828125 2.25390625 C20.14828125 2.25390625 20.80828125 2.25390625 21.48828125 2.25390625 C21.48828125 1.59390625 21.48828125 0.93390625 21.48828125 0.25390625 C30.87492603 -7.18522905 39.87842945 -9.68753949 51.6015625 -8.5390625 C59.14075227 -7.32047232 66.11261814 -3.12175686 71.48828125 2.25390625 C71.33563665 6.52795511 68.26644993 9.27729695 65.48828125 12.25390625 C64.00328125 12.74890625 64.00328125 12.74890625 62.48828125 13.25390625 C60.30078125 11.94140625 60.30078125 11.94140625 58.48828125 10.25390625 C58.48828125 9.59390625 58.48828125 8.93390625 58.48828125 8.25390625 C49.52905359 5.59932028 41.95383692 4.93474519 33.48828125 9.25390625 C32.00328125 9.74890625 32.00328125 9.74890625 30.48828125 10.25390625 C29.42111421 12.05323204 29.42111421 12.05323204 28.48828125 14.25390625 C27.71484375 15.49140625 27.71484375 15.49140625 26.92578125 16.75390625 C25.26231117 19.38334489 25.26231117 19.38334489 24.48828125 23.25390625 C42.96828125 23.25390625 61.44828125 23.25390625 80.48828125 23.25390625 C82.984557 30.74273351 79.75747217 38.44497069 76.48828125 45.25390625 C74.34501574 49.43745754 72.00887342 51.6750653 68.17578125 54.37890625 C67.25152344 55.04148438 66.32726562 55.7040625 65.375 56.38671875 C56.19179238 62.32660135 46.94572419 63.99192446 36.07421875 61.7578125 C34.10001723 61.0617295 32.32999499 60.24714488 30.48828125 59.25390625 C29.83601563 58.92519531 29.18375 58.59648437 28.51171875 58.2578125 C20.49701639 53.78628937 14.44590694 46.94193171 11.48828125 38.25390625 C9.40528532 40.96180096 7.54711181 43.73274496 5.73828125 46.62890625 C0.76461565 54.08940465 -5.77722054 59.10852813 -14.36328125 61.84375 C-24.83715658 63.84330802 -34.18596786 62.09658399 -43.13671875 56.56640625 C-50.64112206 51.27921301 -56.4459742 44.58806647 -58.27734375 35.421875 C-58.45005207 34.09646952 -58.61141302 32.76953879 -58.76171875 31.44140625 C-58.89707031 30.42143555 -58.89707031 30.42143555 -59.03515625 29.38085938 C-59.24574403 27.67747597 -59.38508446 25.9655797 -59.51171875 24.25390625 C-58.51171875 23.25390625 -58.51171875 23.25390625 -56.2275238 23.13365173 C-55.21714554 23.13587234 -54.20676727 23.13809296 -53.16577148 23.14038086 C-51.45411049 23.14049416 -51.45411049 23.14049416 -49.70787048 23.14060974 C-48.46622635 23.14577103 -47.22458221 23.15093231 -45.9453125 23.15625 C-44.04967308 23.15837242 -44.04967308 23.15837242 -42.11573792 23.16053772 C-38.75046986 23.16520043 -35.38526885 23.17419145 -32.02001953 23.1852417 C-28.58822205 23.19545779 -25.15641766 23.20003576 -21.72460938 23.20507812 C-14.98696051 23.21613245 -8.2493435 23.23288915 -1.51171875 23.25390625 C-1.80046875 22.69960937 -2.08921875 22.1453125 -2.38671875 21.57421875 C-2.75796875 20.84976563 -3.12921875 20.1253125 -3.51171875 19.37890625 C-3.88296875 18.65960938 -4.25421875 17.9403125 -4.63671875 17.19921875 C-5.51171875 15.25390625 -5.51171875 15.25390625 -5.51171875 13.25390625 C-6.17171875 13.25390625 -6.83171875 13.25390625 -7.51171875 13.25390625 C-8.27484375 12.47015625 -9.03796875 11.68640625 -9.82421875 10.87890625 C-13.82882482 6.96743056 -17.35197935 5.96519453 -22.88671875 5.94140625 C-30.45143533 6.09371598 -35.43769903 8.9576484 -41.51171875 13.25390625 C-49.17914472 7.28807481 -49.17914472 7.28807481 -50.51171875 2.25390625 C-49.52171875 2.25390625 -48.53171875 2.25390625 -47.51171875 2.25390625 C-47.18171875 1.26390625 -46.85171875 0.27390625 -46.51171875 -0.74609375 C-31.83127141 -12.19334733 -14.39916811 -11.05904991 0 0 Z M-43.51171875 35.25390625 C-42.85171875 36.90390625 -42.19171875 38.55390625 -41.51171875 40.25390625 C-40.85171875 40.25390625 -40.19171875 40.25390625 -39.51171875 40.25390625 C-39.18171875 41.24390625 -38.85171875 42.23390625 -38.51171875 43.25390625 C-37.85171875 43.25390625 -37.19171875 43.25390625 -36.51171875 43.25390625 C-36.51171875 43.91390625 -36.51171875 44.57390625 -36.51171875 45.25390625 C-30.93622844 48.54201592 -25.6315583 49.91252006 -19.21484375 48.88671875 C-13.21165267 47.20996538 -8.64534181 43.89368724 -4.51171875 39.25390625 C-4.18171875 38.26390625 -3.85171875 37.27390625 -3.51171875 36.25390625 C-7.89737946 35.16596123 -12.1675464 35.12493311 -16.65625 35.15625 C-17.42603683 35.15766495 -18.19582367 35.1590799 -18.98893738 35.16053772 C-21.43407163 35.16611019 -23.87911243 35.17865754 -26.32421875 35.19140625 C-27.98762888 35.19642481 -29.65104045 35.2009871 -31.31445312 35.20507812 C-35.38024403 35.21607059 -39.44596558 35.23331615 -43.51171875 35.25390625 Z M26.48828125 35.25390625 C27.76370583 41.63102913 30.29734992 43.64444145 35.48828125 47.25390625 C40.99469759 49.51547011 46.76506656 50.38085629 52.52734375 48.63671875 C58.10445608 46.20346125 62.04325574 42.22766184 65.48828125 37.25390625 C65.48828125 36.59390625 65.48828125 35.93390625 65.48828125 35.25390625 C52.61828125 35.25390625 39.74828125 35.25390625 26.48828125 35.25390625 Z " fill="#078560" transform="translate(101.51171875,85.74609375)"/>
<path d="M0 0 C0.495 1.485 0.495 1.485 1 3 C4.00847418 4.22520264 4.00847418 4.22520264 7 5 C5.68 5.33 4.36 5.66 3 6 C2.67 7.98 2.34 9.96 2 12 C-1 13 -1 13 -3.5625 12.0625 C-8.57301549 10.51379521 -14.00648533 10.24339739 -19.1328125 11.5390625 C-21.63123491 12.15582787 -23.53473258 11.61631685 -26 11 C-26 11.66 -26 12.32 -26 13 C-26.66 13 -27.32 13 -28 13 C-28.66 14.32 -29.32 15.64 -30 17 C-30.99 17 -31.98 17 -33 17 C-33.33 17.99 -33.66 18.98 -34 20 C-34.66 19.67 -35.32 19.34 -36 19 C-36 17.68 -36 16.36 -36 15 C-36.66 14.67 -37.32 14.34 -38 14 C-37.40269644 10.65510004 -36.42082645 8.42082645 -34 6 C-31.3125 5.75 -31.3125 5.75 -29 6 C-28.690625 5.38125 -28.38125 4.7625 -28.0625 4.125 C-26 0 -26 0 -23.1875 -1.125 C-15.76039827 -3.05451509 -7.10307781 -2.9990773 0 0 Z " fill="#08835F" transform="translate(159,81)"/>
<path d="M0 0 C2.03144641 0.93446535 4.03533587 1.93224776 6 3 C4.04271646 8.70874367 1.51218686 12.42581423 -3.9375 15.125 C-4.62972656 15.44339844 -5.32195312 15.76179687 -6.03515625 16.08984375 C-8.47024007 17.21782492 -10.71868661 18.59095349 -13 20 C-16.00313748 21.50156874 -18.79067522 21.09281204 -22.125 21.0625 C-23.40632813 21.05347656 -24.68765625 21.04445312 -26.0078125 21.03515625 C-26.99523437 21.02355469 -27.98265625 21.01195312 -29 21 C-29 20.34 -29 19.68 -29 19 C-29.96099609 18.99613281 -29.96099609 18.99613281 -30.94140625 18.9921875 C-37.01524374 18.72062994 -40.37007112 17.64603929 -44.8203125 13.47265625 C-46 12 -46 12 -46 10 C-43.36 9.67 -40.72 9.34 -38 9 C-38 8.34 -38 7.68 -38 7 C-36.0625 7.3125 -36.0625 7.3125 -34 8 C-33.67 8.99 -33.34 9.98 -33 11 C-26.07 11 -19.14 11 -12 11 C-12 9.35 -12 7.7 -12 6 C-11.505 6.99 -11.505 6.99 -11 8 C-7.45224921 6.02902734 -4.81311434 3.91011828 -2 1 C-1.34 0.67 -0.68 0.34 0 0 Z " fill="#068761" transform="translate(101,125)"/>
<path d="M0 0 C0.66 0 1.32 0 2 0 C1.608125 0.556875 1.21625 1.11375 0.8125 1.6875 C-0.30985442 4.07451671 -0.30985442 4.07451671 1.0625 6.6875 C2.81922119 9.21317603 2.81922119 9.21317603 5.6875 9.8125 C6.450625 9.874375 7.21375 9.93625 8 10 C8 9.34 8 8.68 8 8 C12.3949493 4.34935663 16.58206441 4.6092744 22 4.75 C22.7940625 4.75515625 23.588125 4.7603125 24.40625 4.765625 C32.2809627 4.87062117 32.2809627 4.87062117 36 6 C37.3125 8.0625 37.3125 8.0625 38 10 C38.66 10 39.32 10 40 10 C40 10.66 40 11.32 40 12 C40.66 12 41.32 12 42 12 C46.17164642 16.90781932 46.18920028 19.89513767 46 26 C38.60290309 26.17687866 31.20564686 26.34283967 23.80799294 26.49477577 C20.37314896 26.56566714 16.9384739 26.64035018 13.50390625 26.72363281 C9.55750086 26.81916177 5.61085002 26.89831757 1.6640625 26.9765625 C0.42757965 27.00875885 -0.8089032 27.0409552 -2.08285522 27.0741272 C-3.22388702 27.09429901 -4.36491882 27.11447083 -5.54052734 27.13525391 C-7.05276382 27.16856308 -7.05276382 27.16856308 -8.59555054 27.20254517 C-11 27 -11 27 -13 25 C-12 24 -12 24 -9.71580505 23.87974548 C-8.70542679 23.88196609 -7.69504852 23.88418671 -6.65405273 23.88647461 C-4.94239174 23.88658791 -4.94239174 23.88658791 -3.19615173 23.88670349 C-1.9545076 23.89186478 -0.71286346 23.89702606 0.56640625 23.90234375 C2.46204567 23.90446617 2.46204567 23.90446617 4.39598083 23.90663147 C7.76124889 23.91129418 11.1264499 23.9202852 14.49169922 23.93133545 C17.9234967 23.94155154 21.35530109 23.94612951 24.78710938 23.95117188 C31.52475824 23.9622262 38.26237525 23.9789829 45 24 C44.71125 23.44570312 44.4225 22.89140625 44.125 22.3203125 C43.75375 21.59585938 43.3825 20.87140625 43 20.125 C42.62875 19.40570313 42.2575 18.68640625 41.875 17.9453125 C41 16 41 16 41 14 C40.34 14 39.68 14 39 14 C38.236875 13.21625 37.47375 12.4325 36.6875 11.625 C32.68289393 7.71352431 29.1597394 6.71128828 23.625 6.6875 C16.06028342 6.83980973 11.07401972 9.70374215 5 14 C-2.66742597 8.03416856 -2.66742597 8.03416856 -4 3 C-3.01 3 -2.02 3 -1 3 C-0.67 2.01 -0.34 1.02 0 0 Z " fill="#276D5A" transform="translate(55,85)"/>
<path d="M0 0 C0.495 0.99 0.495 0.99 1 2 C-4.76719387 10.60709995 -12.48643631 17.90470424 -23 20 C-35.27134469 20.85423015 -44.38014183 18.81838661 -54 11 C-56.18643016 8.75958391 -58.06975209 6.47467681 -60 4 C-59.34 3.34 -58.68 2.68 -58 2 C-54 6.75 -54 6.75 -54 9 C-52.8553125 9.433125 -52.8553125 9.433125 -51.6875 9.875 C-49 11 -49 11 -46 13 C-46 13.66 -46 14.32 -46 15 C-42.7 15.33 -39.4 15.66 -36 16 C-36 16.66 -36 17.32 -36 18 C-33.79095369 17.91224337 -31.58271407 17.80405633 -29.375 17.6875 C-27.53035156 17.60048828 -27.53035156 17.60048828 -25.6484375 17.51171875 C-21.80809385 16.97308383 -19.34207712 15.92051755 -16 14 C-15.32453125 13.61457031 -14.6490625 13.22914063 -13.953125 12.83203125 C-13.39109375 12.49558594 -12.8290625 12.15914062 -12.25 11.8125 C-9 10 -9 10 -7 10 C-6.773125 9.46375 -6.54625 8.9275 -6.3125 8.375 C-4.56617944 5.21499137 -2.3597151 2.7323017 0 0 Z " fill="#1A6B57" transform="translate(108,128)"/>
<path d="M0 0 C1.72974441 0.00015918 3.45949355 0.0058569 5.18920898 0.01586914 C6.09783188 0.01728409 7.00645477 0.01869904 7.94261169 0.02015686 C10.85687494 0.02577346 13.77106254 0.03832874 16.68530273 0.05102539 C18.65600475 0.05603825 20.62670797 0.06060153 22.59741211 0.06469727 C27.43923832 0.07574828 32.28100768 0.09302401 37.12280273 0.11352539 C37.12280273 0.77352539 37.12280273 1.43352539 37.12280273 2.11352539 C32.21171649 2.28141601 27.30046512 2.44194609 22.38891602 2.59570312 C20.71860302 2.64902478 19.04835259 2.7043462 17.37817383 2.76171875 C14.97547903 2.84390492 12.57264993 2.91886262 10.16967773 2.99243164 C9.4247406 3.01946671 8.67980347 3.04650177 7.91229248 3.07435608 C4.48793469 3.17260634 1.39248194 3.22208101 -1.87719727 2.11352539 C-0.88719727 4.42352539 0.10280273 6.73352539 1.12280273 9.11352539 C-0.85719727 9.44352539 -2.83719727 9.77352539 -4.87719727 10.11352539 C-4.90408943 8.63445647 -4.92354348 7.15525056 -4.93969727 5.67602539 C-4.95129883 4.85231445 -4.96290039 4.02860352 -4.97485352 3.17993164 C-4.79860671 -0.54945083 -3.9163669 0.11467229 0 0 Z " fill="#17725A" transform="translate(129.877197265625,118.886474609375)"/>
<path d="M0 0 C0.33 0.66 0.66 1.32 1 2 C1.66 2 2.32 2 3 2 C3 2.66 3 3.32 3 4 C3.99 4.33 4.98 4.66 6 5 C5.67 6.65 5.34 8.3 5 10 C6.32 10.33 7.64 10.66 9 11 C8.70822359 14.15972507 8.00164228 14.99855543 5.56640625 17.140625 C4.07947266 18.18476563 4.07947266 18.18476563 2.5625 19.25 C1.07943359 20.30960938 1.07943359 20.30960938 -0.43359375 21.390625 C-3 23 -3 23 -5 23 C-5 22.34 -5 21.68 -5 21 C-3.5459375 20.1028125 -3.5459375 20.1028125 -2.0625 19.1875 C1.20119997 17.31816449 1.20119997 17.31816449 1.875 14.25 C1.91625 13.5075 1.9575 12.765 2 12 C1.34 11.67 0.68 11.34 0 11 C-0.33 10.01 -0.66 9.02 -1 8 C-2.32 8.33 -3.64 8.66 -5 9 C-3.50163895 5.88801935 -1.80066242 2.9465385 0 0 Z " fill="#0E7D5D" transform="translate(167,121)"/>
<path d="M0 0 C19.14 0.33 38.28 0.66 58 1 C60.5314351 8.59430531 57.12115212 16.04636341 54 23 C53.01 23 52.02 23 51 23 C51.52400391 21.98292969 51.52400391 21.98292969 52.05859375 20.9453125 C52.51363281 20.01460937 52.96867187 19.08390625 53.4375 18.125 C53.88996094 17.22007813 54.34242188 16.31515625 54.80859375 15.3828125 C56.4969389 11.01492148 56.4969389 11.01492148 57 2 C38.52 2 20.04 2 1 2 C0.67 1.34 0.34 0.68 0 0 Z " fill="#2C6457" transform="translate(124,108)"/>
<path d="M0 0 C3 1 3 1 4 2.875 C4.33 3.57625 4.66 4.2775 5 5 C7.03172132 7.38506416 7.93031846 7.97677282 11 9 C11 8.34 11 7.68 11 7 C11.66 7 12.32 7 13 7 C13 7.99 13 8.98 13 10 C13.99 10 14.98 10 16 10 C16.33 11.65 16.66 13.3 17 15 C17.99 15.33 18.98 15.66 20 16 C20 16.66 20 17.32 20 18 C11.42094102 16.17789898 4.94215359 10.01890961 0 3 C0 2.01 0 1.02 0 0 Z " fill="#0C8261" transform="translate(116,128)"/>
<path d="M0 0 C0.33 0.66 0.66 1.32 1 2 C1.66 2 2.32 2 3 2 C4.625 3.375 4.625 3.375 6 5 C6 5.66 6 6.32 6 7 C14.74760974 9.89406902 21.1483181 10.29708076 30 8 C30 9.32 30 10.64 30 12 C26.51541293 13.16152902 23.73309492 13.13270324 20.0625 13.125 C18.83660156 13.12757813 17.61070313 13.13015625 16.34765625 13.1328125 C11.31103492 12.93299322 11.31103492 12.93299322 9 12 C8.34 11.01 7.68 10.02 7 9 C6.01 8.34 5.02 7.68 4 7 C2.31384218 5.35305515 0.64429829 3.68873879 -1 2 C-0.67 1.34 -0.34 0.68 0 0 Z " fill="#1F735D" transform="translate(59,124)"/>
<path d="M0 0 C0 0.33 0 0.66 0 1 C-5.75 2.125 -5.75 2.125 -8 1 C-13.15445016 0.82527288 -17.91940468 1.15323411 -23 2 C-23 2.66 -23 3.32 -23 4 C-26.63 4.66 -30.26 5.32 -34 6 C-25.88727592 -3.80287493 -11.12075614 -3.23512906 0 0 Z " fill="#1D6A56" transform="translate(91,79)"/>
<path d="M0 0 C8.83834182 3.2308877 14.38936145 8.73743062 19.1015625 16.765625 C20 19 20 19 19 22 C18.67 21.01 18.34 20.02 18 19 C17.34 19 16.68 19 16 19 C15.67 17.02 15.34 15.04 15 13 C14.34 13 13.68 13 13 13 C13 12.34 13 11.68 13 11 C12.01 10.67 11.02 10.34 10 10 C10 9.34 10 8.68 10 8 C9.34 8 8.68 8 8 8 C8 7.34 8 6.68 8 6 C7.05125 5.7525 6.1025 5.505 5.125 5.25 C2 4 2 4 0.625 1.875 C0.41875 1.25625 0.2125 0.6375 0 0 Z " fill="#176851" transform="translate(91,80)"/>
<path d="M0 0 C0.845625 0.61875 1.69125 1.2375 2.5625 1.875 C8.06886604 5.51152277 14.44035211 7.03320461 21 6 C24.1195012 4.88242169 27.05997403 3.52445791 30 2 C29.67 3.65 29.34 5.3 29 7 C25.89698871 7.36482375 22.79249627 7.71500944 19.6875 8.0625 C18.80642578 8.16626953 17.92535156 8.27003906 17.01757812 8.37695312 C16.17001953 8.47041016 15.32246094 8.56386719 14.44921875 8.66015625 C13.66893311 8.74918213 12.88864746 8.83820801 12.0847168 8.92993164 C10 9 10 9 7 8 C7 7.34 7 6.68 7 6 C6.21625 5.938125 5.4325 5.87625 4.625 5.8125 C3.75875 5.544375 2.8925 5.27625 2 5 C0.6875 2.4375 0.6875 2.4375 0 0 Z " fill="#1D6E57" transform="translate(131,128)"/>
<path d="M0 0 C0.33 0.66 0.66 1.32 1 2 C0.34 2 -0.32 2 -1 2 C-1 3.65 -1 5.3 -1 7 C-5.625 9.125 -5.625 9.125 -9 8 C-9.4021875 8.86625 -9.4021875 8.86625 -9.8125 9.75 C-11.01719859 12.0325868 -12.40798115 13.9737942 -14 16 C-14.66 15.67 -15.32 15.34 -16 15 C-15 13 -14 11 -13 9 C-12.34 9 -11.68 9 -11 9 C-11 8.34 -11 7.68 -11 7 C-9.21601386 5.71993203 -7.37146094 4.52339649 -5.5 3.375 C-4.4790625 2.74335937 -3.458125 2.11171875 -2.40625 1.4609375 C-1.6121875 0.97882813 -0.818125 0.49671875 0 0 Z " fill="#0B6546" transform="translate(134,79)"/>
<path d="M0 0 C3.0625 2.125 3.0625 2.125 5 4 C2.50907189 5.24546405 1.58919267 4.7767578 -1 4 C-1 3.34 -1 2.68 -1 2 C-8.89695369 0.56419024 -17.145176 0.18734831 -25 2 C-25 1.34 -25 0.68 -25 0 C-16.45706382 -2.44083891 -8.50461588 -2.94266177 0 0 Z " fill="#27705E" transform="translate(160,79)"/>
<path d="M0 0 C5.66043437 0.06871486 11.3201185 0.15660064 16.97998047 0.26245117 C18.90632831 0.29575369 20.83277499 0.32376889 22.75927734 0.34643555 C25.5248435 0.37988424 28.28949953 0.43219336 31.0546875 0.48828125 C32.3516304 0.49786613 32.3516304 0.49786613 33.67477417 0.50764465 C36.10107422 0.56762695 36.10107422 0.56762695 40 1 C40.66 1.99 41.32 2.98 42 4 C40.845 3.83701416 39.69 3.67402832 38.5 3.50610352 C34.32829623 2.98653073 30.20060294 2.87048615 26 2.90234375 C25.2788501 2.9037587 24.5577002 2.90517365 23.81469727 2.90663147 C21.54308676 2.91216619 19.27158 2.92470577 17 2.9375 C15.44661602 2.94252346 13.89323048 2.94708488 12.33984375 2.95117188 C8.55985672 2.96211411 4.77994586 2.9793324 1 3 C0.67 2.01 0.34 1.02 0 0 Z " fill="#1F6954" transform="translate(58,119)"/>
<path d="M0 0 C0.99 0.66 1.98 1.32 3 2 C2.49904971 6.34156921 -0.10523005 8.89846077 -3 12 C-3.99 12.33 -4.98 12.66 -6 13 C-8.1875 11.6875 -8.1875 11.6875 -10 10 C-10 9.34 -10 8.68 -10 8 C-7.03 8.495 -7.03 8.495 -4 9 C-3.67 8.01 -3.34 7.02 -3 6 C-2.01 6 -1.02 6 0 6 C-0.185625 5.38125 -0.37125 4.7625 -0.5625 4.125 C-1 2 -1 2 0 0 Z " fill="#1D6D57" transform="translate(170,86)"/>
<path d="M0 0 C-1 2 -1 2 -3.6875 3.125 C-9.575457 4.67381541 -15.97453246 4.51473843 -22 4 C-22.99 3.34 -23.98 2.68 -25 2 C-21.535 1.505 -21.535 1.505 -18 1 C-18 1.66 -18 2.32 -18 3 C-12.76062111 2.60290237 -12.76062111 2.60290237 -7.875 0.9375 C-5.23229983 -0.38385008 -2.90616409 -0.13209837 0 0 Z " fill="#1F6454" transform="translate(162,144)"/>
<path d="M0 0 C1.65 0 3.3 0 5 0 C3.71034824 1.37562854 2.37310707 2.70766393 1 4 C0.34 4 -0.32 4 -1 4 C-1.2475 4.515625 -1.495 5.03125 -1.75 5.5625 C-3.39581616 8.77184151 -5.1976096 11.87585664 -7 15 C-7.33 15 -7.66 15 -8 15 C-7.93993922 13.54052295 -7.8511311 12.08220728 -7.75 10.625 C-7.70359375 9.81289062 -7.6571875 9.00078125 -7.609375 8.1640625 C-7 6 -7 6 -5.015625 4.8359375 C-4.01789063 4.42214844 -4.01789063 4.42214844 -3 4 C-2.67 3.34 -2.34 2.68 -2 2 C-1.34 2 -0.68 2 0 2 C0 1.34 0 0.68 0 0 Z " fill="#1E7664" transform="translate(133,92)"/>
<path d="M0 0 C1.98 0.99 1.98 0.99 4 2 C4 2.66 4 3.32 4 4 C4.66 4 5.32 4 6 4 C6 4.66 6 5.32 6 6 C6.66 6 7.32 6 8 6 C11.31168629 10.0909066 12.50130606 12.73628638 12 18 C9.08772731 14.71195019 7.50298788 12.40114397 7 8 C6.34 8 5.68 8 5 8 C2.375 5.6875 2.375 5.6875 0 3 C0 2.01 0 1.02 0 0 Z " fill="#1E725C" transform="translate(89,91)"/>
<path d="M0 0 C3 1 3 1 4 2.875 C4.33 3.57625 4.66 4.2775 5 5 C7.03172132 7.38506416 7.93031846 7.97677282 11 9 C11 10.32 11 11.64 11 13 C7.64138305 11.56590028 5.64125061 9.80630679 3.25 7.0625 C2.63640625 6.37285156 2.0228125 5.68320313 1.390625 4.97265625 C0 3 0 3 0 0 Z " fill="#1B6653" transform="translate(116,128)"/>
<path d="M0 0 C0.33 0.66 0.66 1.32 1 2 C-2.56320845 7.09210286 -6.04741286 11.22660027 -11 15 C-11.66 14.67 -12.32 14.34 -13 14 C-11.71034824 12.62437146 -10.37310707 11.29233607 -9 10 C-8.34 10 -7.68 10 -7 10 C-6.773125 9.46375 -6.54625 8.9275 -6.3125 8.375 C-4.56617944 5.21499137 -2.3597151 2.7323017 0 0 Z " fill="#1E6551" transform="translate(108,128)"/>
<path d="M0 0 C0.66 0 1.32 0 2 0 C2.33 0.99 2.66 1.98 3 3 C5.01508358 3.73323796 5.01508358 3.73323796 7 4 C6.01 5.32 5.02 6.64 4 8 C1.03 7.505 1.03 7.505 -2 7 C-1.34 4.69 -0.68 2.38 0 0 Z " fill="#0A8A64" transform="translate(162,87)"/>
<path d="M0 0 C0.33 0.99 0.66 1.98 1 3 C-0.7873962 4.33905267 -2.58004953 5.67109066 -4.375 7 C-5.37273437 7.7425 -6.37046875 8.485 -7.3984375 9.25 C-10 11 -10 11 -12 11 C-12 10.34 -12 9.68 -12 9 C-6.58823529 5 -6.58823529 5 -4 5 C-3.67 4.01 -3.34 3.02 -3 2 C-2.01 1.34 -1.02 0.68 0 0 Z " fill="#18614D" transform="translate(174,133)"/>
<path d="M0 0 C1.23516383 3.70549149 0.58673093 4.89663836 -0.75 8.5 C-1.09546875 9.4590625 -1.4409375 10.418125 -1.796875 11.40625 C-2.94109446 13.87300883 -3.9506565 15.25688024 -6 17 C-6 13.14750338 -4.53704012 10.26391667 -3 6.8125 C-2.71382812 6.15830078 -2.42765625 5.50410156 -2.1328125 4.83007812 C-1.42675226 3.21790725 -0.71401678 1.60866281 0 0 Z " fill="#21634F" transform="translate(182,115)"/>
<path d="M0 0 C0.66 0 1.32 0 2 0 C1.34 1.32 0.68 2.64 0 4 C1.98 6.97 1.98 6.97 4 10 C3.67 10.66 3.34 11.32 3 12 C-0.73884332 9.34345343 -2.64978174 7.41889613 -4 3 C-3.01 3 -2.02 3 -1 3 C-0.67 2.01 -0.34 1.02 0 0 Z " fill="#2E715D" transform="translate(55,85)"/>
<path d="M0 0 C0.66 0.66 1.32 1.32 2 2 C1.26418258 3.1549921 0.51069961 4.29874185 -0.25 5.4375 C-0.66765625 6.07558594 -1.0853125 6.71367187 -1.515625 7.37109375 C-3.27248877 9.29902057 -4.46089803 9.61479436 -7 10 C-5.33248852 6.05860922 -2.77289351 3.2107188 0 0 Z " fill="#1B6D57" transform="translate(97,123)"/>
<path d="M0 0 C2 2 2 2 2.125 5.625 C2.08375 6.73875 2.0425 7.8525 2 9 C0.68 8.34 -0.64 7.68 -2 7 C-1.125 1.125 -1.125 1.125 0 0 Z " fill="#198567" transform="translate(111,102)"/>
<path d="M0 0 C5.71241466 0.38728235 8.73688282 0.87010523 13 5 C10.50907189 6.24546405 9.58919267 5.7767578 7 5 C7 4.34 7 3.68 7 3 C4.69 2.67 2.38 2.34 0 2 C0 1.34 0 0.68 0 0 Z " fill="#1C6A55" transform="translate(152,78)"/>
<path d="M0 0 C1.32 0 2.64 0 4 0 C4 0.66 4 1.32 4 2 C7.96 2 11.92 2 16 2 C16 2.33 16 2.66 16 3 C10.39 3 4.78 3 -1 3 C-0.67 2.01 -0.34 1.02 0 0 Z " fill="#1F7860" transform="translate(68,144)"/>
<path d="M0 0 C1.32 0 2.64 0 4 0 C4.66 1.65 5.32 3.3 6 5 C5.01 5.99 4.02 6.98 3 8 C2.34 7.67 1.68 7.34 1 7 C1.33 5.68 1.66 4.36 2 3 C1.34 2.67 0.68 2.34 0 2 C0 1.34 0 0.68 0 0 Z " fill="#0E7E5E" transform="translate(105,121)"/>
<path d="M0 0 C0.33 0.66 0.66 1.32 1 2 C0.0625 4.125 0.0625 4.125 -1 6 C-1.598125 5.835 -2.19625 5.67 -2.8125 5.5 C-5.11344336 4.8885876 -5.11344336 4.8885876 -8 5 C-8 4.34 -8 3.68 -8 3 C-2.125 1 -2.125 1 -1 1 C-0.67 0.67 -0.34 0.34 0 0 Z " fill="#0E8C66" transform="translate(169,133)"/>
<path d="M0 0 C0.66 0 1.32 0 2 0 C4.42857143 7.42857143 4.42857143 7.42857143 3 11 C0.84694043 7.14243493 -0.39253254 4.44870215 0 0 Z " fill="#1C604D" transform="translate(44,120)"/>
<path d="M0 0 C1.98 0 3.96 0 6 0 C6.33 1.65 6.66 3.3 7 5 C6.01 5.495 6.01 5.495 5 6 C5 5.34 5 4.68 5 4 C3.35 4 1.7 4 0 4 C0 2.68 0 1.36 0 0 Z " fill="#0B7659" transform="translate(111,120)"/>
<path d="M0 0 C1.32 0 2.64 0 4 0 C4 1.98 4 3.96 4 6 C2.68 6 1.36 6 0 6 C0 4.02 0 2.04 0 0 Z " fill="#0B8866" transform="translate(120,128)"/>
<path d="M0 0 C0 3.90838866 -1.50567876 5.11594107 -4 8 C-4.66 7.67 -5.32 7.34 -6 7 C-3 1 -3 1 0 0 Z " fill="#176A52" transform="translate(124,87)"/>
<path d="M0 0 C1.98 0.495 1.98 0.495 4 1 C2.68 3.31 1.36 5.62 0 8 C-0.33 8 -0.66 8 -1 8 C-1.125 2.25 -1.125 2.25 0 0 Z " fill="#19715C" transform="translate(126,99)"/>
<path d="M0 0 C0.33 0.66 0.66 1.32 1 2 C1.66 2 2.32 2 3 2 C4.625 3.375 4.625 3.375 6 5 C6 5.66 6 6.32 6 7 C6.66 7.33 7.32 7.66 8 8 C3.75177626 7.52797514 1.80010291 5.03344482 -1 2 C-0.67 1.34 -0.34 0.68 0 0 Z " fill="#1A564B" transform="translate(59,124)"/>
<path d="M0 0 C1.32 0.33 2.64 0.66 4 1 C3.34 1 2.68 1 2 1 C2 1.66 2 2.32 2 3 C2.66 3 3.32 3 4 3 C4 3.66 4 4.32 4 5 C1.5625 4.625 1.5625 4.625 -1 4 C-1.33 3.34 -1.66 2.68 -2 2 C-1.34 2 -0.68 2 0 2 C0 1.34 0 0.68 0 0 Z " fill="#05815D" transform="translate(58,90)"/>
<path d="M0 0 C0.99 0.33 1.98 0.66 3 1 C4.1875 4.0625 4.1875 4.0625 5 7 C4.01 7.495 4.01 7.495 3 8 C3 7.01 3 6.02 3 5 C2.34 5 1.68 5 1 5 C0.67 3.35 0.34 1.7 0 0 Z " fill="#157659" transform="translate(106,94)"/>
<path d="M0 0 C2.31 0.33 4.62 0.66 7 1 C7.33 1.99 7.66 2.98 8 4 C4.64404172 3.40072174 2.62198774 2.15377564 0 0 Z " fill="#1D6753" transform="translate(128,142)"/>
<path d="M0 0 C4.5 3 4.5 3 9 6 C6.69 5.67 4.38 5.34 2 5 C1.34 3.35 0.68 1.7 0 0 Z " fill="#1E6351" transform="translate(131,128)"/>
<path d="M0 0 C0.66 0 1.32 0 2 0 C1.125 5.75 1.125 5.75 0 8 C-0.66 8 -1.32 8 -2 8 C-1.47731534 5.23723823 -0.89130413 2.6739124 0 0 Z " fill="#166A53" transform="translate(116,94)"/>
<path d="" fill="#FFFFFF" transform="translate(0,0)"/>
<path d="" fill="#FFFFFF" transform="translate(0,0)"/>
<path d="" fill="#FFFFFF" transform="translate(0,0)"/>
<path d="" fill="#FFFFFF" transform="translate(0,0)"/>
<path d="" fill="#FFFFFF" transform="translate(0,0)"/>
<path d="" fill="#FFFFFF" transform="translate(0,0)"/>
<path d="" fill="#FFFFFF" transform="translate(0,0)"/>
<path d="" fill="#FFFFFF" transform="translate(0,0)"/>
<path d="" fill="#FFFFFF" transform="translate(0,0)"/>
<path d="" fill="#FFFFFF" transform="translate(0,0)"/>
<path d="" fill="#FFFFFF" transform="translate(0,0)"/>
<path d="" fill="#FFFFFF" transform="translate(0,0)"/>
<path d="" fill="#FFFFFF" transform="translate(0,0)"/>
<path d="" fill="#FFFFFF" transform="translate(0,0)"/>
<path d="" fill="#FFFFFF" transform="translate(0,0)"/>
<path d="" fill="#FFFFFF" transform="translate(0,0)"/>
<path d="" fill="#FFFFFF" transform="translate(0,0)"/>
<path d="" fill="#FFFFFF" transform="translate(0,0)"/>
<path d="" fill="#FFFFFF" transform="translate(0,0)"/>
<path d="" fill="#FFFFFF" transform="translate(0,0)"/>
<path d="" fill="#FFFFFF" transform="translate(0,0)"/>
<path d="" fill="#FFFFFF" transform="translate(0,0)"/>
<path d="" fill="#FFFFFF" transform="translate(0,0)"/>
<path d="" fill="#FFFFFF" transform="translate(0,0)"/>
<path d="" fill="#FFFFFF" transform="translate(0,0)"/>
<path d="" fill="#FFFFFF" transform="translate(0,0)"/>
<path d="" fill="#FFFFFF" transform="translate(0,0)"/>
<path d="" fill="#FFFFFF" transform="translate(0,0)"/>
<path d="" fill="#FFFFFF" transform="translate(0,0)"/>
<path d="" fill="#FFFFFF" transform="translate(0,0)"/>
<path d="" fill="#FFFFFF" transform="translate(0,0)"/>
<path d="" fill="#FFFFFF" transform="translate(0,0)"/>
<path d="" fill="#FFFFFF" transform="translate(0,0)"/>
<path d="" fill="#FFFFFF" transform="translate(0,0)"/>
<path d="" fill="#FFFFFF" transform="translate(0,0)"/>
<path d="" fill="#FFFFFF" transform="translate(0,0)"/>
<path d="" fill="#FFFFFF" transform="translate(0,0)"/>
<path d="" fill="#FFFFFF" transform="translate(0,0)"/>
<path d="" fill="#FFFFFF" transform="translate(0,0)"/>
<path d="" fill="#FFFFFF" transform="translate(0,0)"/>
<path d="" fill="#FFFFFF" transform="translate(0,0)"/>
<path d="" fill="#FFFFFF" transform="translate(0,0)"/>
<path d="" fill="#FFFFFF" transform="translate(0,0)"/>
<path d="" fill="#FFFFFF" transform="translate(0,0)"/>
<path d="" fill="#FFFFFF" transform="translate(0,0)"/>
<path d="" fill="#FFFFFF" transform="translate(0,0)"/>
<path d="" fill="#FFFFFF" transform="translate(0,0)"/>
<path d="" fill="#FFFFFF" transform="translate(0,0)"/>
<path d="" fill="#FFFFFF" transform="translate(0,0)"/>
<path d="" fill="#FFFFFF" transform="translate(0,0)"/>
<path d="" fill="#FFFFFF" transform="translate(0,0)"/>
<path d="" fill="#FFFFFF" transform="translate(0,0)"/>
<path d="" fill="#FFFFFF" transform="translate(0,0)"/>
<path d="" fill="#FFFFFF" transform="translate(0,0)"/>
<path d="" fill="#FFFFFF" transform="translate(0,0)"/>
<path d="" fill="#FFFFFF" transform="translate(0,0)"/>
<path d="" fill="#FFFFFF" transform="translate(0,0)"/>
<path d="" fill="#000000" transform="translate(0,0)"/>
<path d="" fill="#FFFFFF" transform="translate(0,0)"/>
<path d="" fill="#FFFFFF" transform="translate(0,0)"/>
<path d="" fill="#FFFFFF" transform="translate(0,0)"/>
<path d="" fill="#FFFFFF" transform="translate(0,0)"/>
<path d="" fill="#FFFFFF" transform="translate(0,0)"/>
<path d="" fill="#FFFFFF" transform="translate(0,0)"/>
<path d="" fill="#FFFFFF" transform="translate(0,0)"/>
<path d="" fill="#FFFFFF" transform="translate(0,0)"/>
<path d="" fill="#FFFFFF" transform="translate(0,0)"/>
<path d="" fill="#FFFFFF" transform="translate(0,0)"/>
<path d="" fill="#FFFFFF" transform="translate(0,0)"/>
<path d="" fill="#FFFFFF" transform="translate(0,0)"/>
<path d="" fill="#FFFFFF" transform="translate(0,0)"/>
<path d="" fill="#FFFFFF" transform="translate(0,0)"/>
<path d="" fill="#FFFFFF" transform="translate(0,0)"/>
<path d="" fill="#FFFFFF" transform="translate(0,0)"/>
<path d="" fill="#FFFFFF" transform="translate(0,0)"/>
<path d="" fill="#FFFFFF" transform="translate(0,0)"/>
<path d="" fill="#FFFFFF" transform="translate(0,0)"/>
<path d="" fill="#FFFFFF" transform="translate(0,0)"/>
<path d="" fill="#FFFFFF" transform="translate(0,0)"/>
<path d="" fill="#FFFFFF" transform="translate(0,0)"/>
<path d="" fill="#FFFFFF" transform="translate(0,0)"/>
<path d="" fill="#FFFFFF" transform="translate(0,0)"/>
<path d="" fill="#FFFFFF" transform="translate(0,0)"/>
<path d="" fill="#FFFFFF" transform="translate(0,0)"/>
<path d="" fill="#FFFFFF" transform="translate(0,0)"/>
<path d="" fill="#FFFFFF" transform="translate(0,0)"/>
<path d="" fill="#FFFFFF" transform="translate(0,0)"/>
<path d="" fill="#FFFFFF" transform="translate(0,0)"/>
<path d="" fill="#FFFFFF" transform="translate(0,0)"/>
<path d="" fill="#FFFFFF" transform="translate(0,0)"/>
<path d="" fill="#FFFFFF" transform="translate(0,0)"/>
<path d="" fill="#FFFFFF" transform="translate(0,0)"/>
<path d="" fill="#FFFFFF" transform="translate(0,0)"/>
<path d="" fill="#FFFFFF" transform="translate(0,0)"/>
<path d="" fill="#FFFFFF" transform="translate(0,0)"/>
<path d="" fill="#FFFFFF" transform="translate(0,0)"/>
</svg>
