<?xml version="1.0" encoding="UTF-8"?>
<svg version="1.1" xmlns="http://www.w3.org/2000/svg" width="300" height="138">
<path d="M0 0 C1.27888092 0.00424484 2.55776184 0.00848969 3.87539673 0.01286316 C7.25890952 0.02677905 10.64180477 0.05368551 14.02514648 0.0869751 C17.48415824 0.11778287 20.94323404 0.13139125 24.40234375 0.14648438 C31.17725277 0.17952121 37.95187201 0.22969724 44.7265625 0.29296875 C44.79078845 4.1066917 44.82919571 7.92027297 44.86328125 11.734375 C44.88161011 12.80417603 44.89993896 13.87397705 44.91882324 14.97619629 C45.02794437 31.29136368 39.33961333 44.93681903 28.203125 56.85546875 C16.81313976 68.06580122 16.81313976 68.06580122 11.7265625 68.29296875 C9.359375 67.03515625 9.359375 67.03515625 6.8515625 65.16796875 C6.02914062 64.56726563 5.20671875 63.9665625 4.359375 63.34765625 C3.49054687 62.66960937 2.62171875 61.9915625 1.7265625 61.29296875 C0.72496094 60.51179688 -0.27664062 59.730625 -1.30859375 58.92578125 C-10.89730171 50.41090752 -17.13518564 37.85303009 -19.2734375 25.29296875 C-19.35090947 23.52744077 -19.38142823 21.75938419 -19.37109375 19.9921875 C-19.36787109 19.01572266 -19.36464844 18.03925781 -19.36132812 17.03320312 C-19.35294922 16.02580078 -19.34457031 15.01839844 -19.3359375 13.98046875 C-19.33142578 12.95373047 -19.32691406 11.92699219 -19.32226562 10.86914062 C-19.31051934 8.34368993 -19.29409315 5.8183597 -19.2734375 3.29296875 C-13.30305815 -0.7828729 -7.00487435 -0.08763146 0 0 Z M11.7265625 10.29296875 C5.70343859 17.55160525 1.19541382 25.24110371 1.7265625 34.91796875 C2.82676768 41.73682286 6.30930957 46.23002905 11.7265625 50.29296875 C12.0565625 44.02296875 12.3865625 37.75296875 12.7265625 31.29296875 C13.0565625 37.56296875 13.3865625 43.83296875 13.7265625 50.29296875 C19.00888177 47.65180912 20.75040783 44.78574512 22.7265625 39.29296875 C24.26478475 29.50206206 22.03568136 22.2493408 16.31640625 14.34375 C14.88199484 12.50169073 14.88199484 12.50169073 12.7265625 10.29296875 C12.3965625 10.29296875 12.0665625 10.29296875 11.7265625 10.29296875 Z M12.7265625 52.29296875 C13.7265625 56.29296875 13.7265625 56.29296875 13.7265625 56.29296875 Z " fill="#68AF46" transform="translate(55.2734375,34.70703125)"/>
<path d="M0 0 C2.64 0 5.28 0 8 0 C9.32 4.62 10.64 9.24 12 14 C12.45375 12.618125 12.9075 11.23625 13.375 9.8125 C14.47975443 6.49300091 15.64632091 3.22800399 17 0 C19.31 0 21.62 0 24 0 C24 8.25 24 16.5 24 25 C22.35 25 20.7 25 19 25 C18.505 20.05 18.505 20.05 18 15 C17.01 18.3 16.02 21.6 15 25 C13.35 25 11.7 25 10 25 C8.66666667 21 7.33333333 17 6 13 C6 16.96 6 20.92 6 25 C4.02 25 2.04 25 0 25 C0 16.75 0 8.5 0 0 Z " fill="#302E2E" transform="translate(109,35)"/>
<path d="M0 0 C3.58875 -0.0928125 3.58875 -0.0928125 7.25 -0.1875 C8.37003418 -0.22846802 8.37003418 -0.22846802 9.51269531 -0.27026367 C12.60270633 -0.30890959 14.72561876 -0.14740926 17.46484375 1.32421875 C19 3 19 3 19.3125 6 C19 9 19 9 18 12 C18.66 12.66 19.32 13.32 20 14 C20.57712545 21.27178067 20.57712545 21.27178067 18.72802734 23.60498047 C16.62257233 25.30469366 15.65947191 25.35322117 12.98828125 25.29296875 C12.30548096 25.28547607 11.62268066 25.2779834 10.91918945 25.27026367 C10.05898193 25.24295166 9.19877441 25.21563965 8.3125 25.1875 C5.569375 25.125625 2.82625 25.06375 0 25 C0 16.75 0 8.5 0 0 Z M5 4 C5 5.98 5 7.96 5 10 C7.31 10 9.62 10 12 10 C12.66 8.68 13.32 7.36 14 6 C12.50256881 4.50256881 11.01175761 4.66797307 8.9375 4.4375 C7.638125 4.293125 6.33875 4.14875 5 4 Z M5 14 C5 16.31 5 18.62 5 21 C9.0100934 21.17864631 9.0100934 21.17864631 13 21 C13.66 20.34 14.32 19.68 15 19 C14.59471099 16.21762345 14.59471099 16.21762345 13 14 C10.32941149 13.85884839 7.67567762 13.95752893 5 14 Z " fill="#323132" transform="translate(244,35)"/>
<path d="M0 0 C14.19642857 -0.66964286 14.19642857 -0.66964286 17.75 2.125 C21.08211125 6.38269771 22.26820941 9.69872034 21.875 15.0625 C21.26051041 18.92712127 19.79270126 21.20729874 17 24 C13.93618406 25.53190797 10.73034134 25.10243613 7.375 25.0625 C4.94125 25.041875 2.5075 25.02125 0 25 C0 16.75 0 8.5 0 0 Z M5 5 C5 9.95 5 14.9 5 20 C10.35742623 20.55217531 10.35742623 20.55217531 15.0625 18.5625 C16.47133119 14.71169474 16.19392819 10.91427089 15 7 C11.63019987 4.35284977 11.63019987 4.35284977 5 5 Z " fill="#393939" transform="translate(219,35)"/>
<path d="M0 0 C1.17046875 0.03609375 2.3409375 0.0721875 3.546875 0.109375 C4.43890625 0.15578125 5.3309375 0.2021875 6.25 0.25 C6.36604679 3.6872166 6.43719508 7.12393086 6.5 10.5625 C6.55027344 12.02719727 6.55027344 12.02719727 6.6015625 13.52148438 C6.61445313 14.45927734 6.62734375 15.39707031 6.640625 16.36328125 C6.66157227 17.22735596 6.68251953 18.09143066 6.70410156 18.98168945 C6.25 21.25 6.25 21.25 4.36425781 23.02832031 C0.7862786 25.09578082 -2.74506954 24.93341015 -6.75 24.25 C-9.3125 22.375 -9.3125 22.375 -10.75 20.25 C-10.75 19.59 -10.75 18.93 -10.75 18.25 C-8.77 18.25 -6.79 18.25 -4.75 18.25 C-4.75 18.91 -4.75 19.57 -4.75 20.25 C-2.27733235 19.90555119 -2.27733235 19.90555119 0.25 19.25 C0.58 18.59 0.91 17.93 1.25 17.25 C0.0125 17.3325 -1.225 17.415 -2.5 17.5 C-5.46765842 17.47369097 -6.61006093 17.33046497 -9.25 15.8125 C-11.41242083 12.11836442 -11.74885784 8.42170038 -10.75 4.25 C-7.67266707 -0.08216772 -5.13468354 -0.20538734 0 0 Z M-3.75 4.25 C-5.9991908 6.07703227 -5.9991908 6.07703227 -6 8.75 C-5.9991908 11.42296773 -5.9991908 11.42296773 -3.75 13.25 C-1.14719432 12.92958603 -1.14719432 12.92958603 1.25 12.25 C2.18423645 9.23968256 2.29449911 8.38349732 1.25 5.25 C-1.14719432 4.57041397 -1.14719432 4.57041397 -3.75 4.25 Z " fill="#363536" transform="translate(187.75,41.75)"/>
<path d="M0 0 C1.32 0 2.64 0 4 0 C4.01981934 0.65597168 4.03963867 1.31194336 4.06005859 1.98779297 C4.15512507 4.95061069 4.26487752 7.91270532 4.375 10.875 C4.4059375 11.90753906 4.436875 12.94007812 4.46875 14.00390625 C4.50742188 14.99003906 4.54609375 15.97617188 4.5859375 16.9921875 C4.6173584 17.90339355 4.6487793 18.81459961 4.68115234 19.75341797 C4.79882511 22.19931186 4.79882511 22.19931186 7 24 C10.3 24 13.6 24 17 24 C17.33 16.08 17.66 8.16 18 0 C19.32 0 20.64 0 22 0 C22.08774066 3.20815845 22.14063706 6.41600462 22.1875 9.625 C22.21263672 10.52863281 22.23777344 11.43226562 22.26367188 12.36328125 C22.32171795 17.66482254 22.07211599 21.45985656 19 26 C14.7659782 28.8226812 10.97182497 28.785025 6 28 C2.38004179 25.34043887 0.79316183 23.35157649 0 19 C-0.07818636 17.48604304 -0.10789909 15.96906493 -0.09765625 14.453125 C-0.09443359 13.60878906 -0.09121094 12.76445313 -0.08789062 11.89453125 C-0.07951172 11.02183594 -0.07113281 10.14914063 -0.0625 9.25 C-0.05798828 8.36183594 -0.05347656 7.47367187 -0.04882812 6.55859375 C-0.037074 4.37232671 -0.02064249 2.18619821 0 0 Z " fill="#2A2729" transform="translate(109,66)"/>
<path d="M0 0 C4.03619369 0.33508023 6.25952079 1.56211147 9 4.625 C10.5 7.5 10.5 7.5 11 10.625 C9.87323581 13.81749853 8.53982558 15.98136181 6.375 18.5625 C2.52410945 20.28526683 -1.0310977 19.93583012 -5 18.625 C-7.83431439 15.65242637 -8.81005798 13.63802411 -9.5625 9.625 C-8.5392822 4.16783841 -5.74229007 0.30451538 0 0 Z M-2.75 5.75 C-4.31977995 7.68536192 -4.31977995 7.68536192 -3.75 10.75 C-3.29066476 13.50290841 -3.29066476 13.50290841 -2 14.625 C0.45792029 14.95843551 0.45792029 14.95843551 3 14.625 C5.29637779 11.86604365 5.29637779 11.86604365 4.75 9.0625 C4.16191948 6.47499433 4.16191948 6.47499433 2 4.625 C-0.92614653 4.3546212 -0.92614653 4.3546212 -2.75 5.75 Z " fill="#343333" transform="translate(206,41.375)"/>
<path d="M0 0 C2.97717008 1.98478006 4.62826444 3.36831119 5.44140625 6.9375 C5.66684799 10.77728188 5.23190202 12.63668683 3.125 15.9375 C0.64918169 18.34050013 -0.34388577 18.91052988 -3.75 19.375 C-8.17615785 18.86428948 -9.95848124 17.18298475 -13 14 C-14.59374606 10.4375088 -14.01975456 9.05827595 -12.75 5.3125 C-9.82522401 -0.22368312 -5.92010255 -1.09418238 0 0 Z M-6 4 C-8.32483785 5.88375675 -8.32483785 5.88375675 -8.1875 9 C-8.20079609 11.92386603 -8.20079609 11.92386603 -7 14 C-5.02 14 -3.04 14 -1 14 C0.39431504 11.21136993 0.25660094 9.07921132 0 6 C-2.81509993 3.7226499 -2.81509993 3.7226499 -6 4 Z " fill="#373536" transform="translate(150,42)"/>
<path d="M0 0 C12.32337884 -0.36604096 12.32337884 -0.36604096 14.90625 1.03125 C16.62218697 4.11993655 16.31239868 7.25758998 16.1875 10.6875 C16.16719727 11.7403418 16.16719727 11.7403418 16.14648438 12.81445312 C16.11120182 14.54329829 16.05739583 16.27174765 16 18 C14.35 18 12.7 18 11 18 C11 13.71 11 9.42 11 5 C9.35 5.33 7.7 5.66 6 6 C5.67 9.96 5.34 13.92 5 18 C3.35 18 1.7 18 0 18 C0 12.06 0 6.12 0 0 Z " fill="#3C3B3B" transform="translate(158,42)"/>
<path d="M0 0 C2.8125 1.5625 2.8125 1.5625 5 4 C5.8125 7.75 5.8125 7.75 6 11 C1.71 11 -2.58 11 -7 11 C-6.67 12.65 -6.34 14.3 -6 16 C-1.20691658 16.46522293 -1.20691658 16.46522293 2.9375 14.5 C3.288125 14.005 3.63875 13.51 4 13 C4.66 13.66 5.32 14.32 6 15 C3.26057998 18.32050912 1.80649943 19.85598224 -2.5 20.625 C-6.99198704 19.82285946 -8.37113271 18.71134206 -11 15 C-11.96183542 12.26073772 -12.30498752 9.89173352 -12 7 C-8.86935101 1.06256226 -6.70706335 -0.65755523 0 0 Z M-8 5 C-8 5.99 -8 6.98 -8 8 C-4.7 8 -1.4 8 2 8 C1.42874646 4.25724788 1.42874646 4.25724788 0 3 C-4.49885769 2.53277305 -4.49885769 2.53277305 -8 5 Z " fill="#2E2D2D" transform="translate(191,74)"/>
<path d="M0 0 C-0.33 2.97 -0.66 5.94 -1 9 C0.6396875 8.938125 0.6396875 8.938125 2.3125 8.875 C6 9 6 9 9 11 C8.67 11.66 8.34 12.32 8 13 C5.03 12.67 2.06 12.34 -1 12 C-1 14.97 -1 17.94 -1 21 C2.3 20.67 5.6 20.34 9 20 C9.73080266 18.02253397 10.39421747 16.01927511 11 14 C10.67 13.34 10.34 12.68 10 12 C11.32 12.66 12.64 13.32 14 14 C14.36065574 19.40983607 14.36065574 19.40983607 12.96875 21.6875 C9.936689 23.708874 6.82111386 23.31526465 3.3125 23.1875 C2.61060547 23.17396484 1.90871094 23.16042969 1.18554688 23.14648438 C-0.54329829 23.11120182 -2.27174765 23.05739583 -4 23 C-4.68695578 17.84783164 -5.1245867 12.76088113 -5.25 7.5625 C-5.27578125 6.55316406 -5.3015625 5.54382812 -5.328125 4.50390625 C-5.16570312 3.26447266 -5.16570312 3.26447266 -5 2 C-2 0 -2 0 0 0 Z " fill="#444343" transform="translate(249,36)"/>
<path d="M0 0 C2.6796875 -0.43359375 2.6796875 -0.43359375 5.875 -0.4375 C6.92429688 -0.45683594 7.97359375 -0.47617187 9.0546875 -0.49609375 C12.60298671 0.10156408 13.7566899 1.26359517 16 4 C15.67 4.99 15.34 5.98 15 7 C14.154375 6.525625 13.30875 6.05125 12.4375 5.5625 C8.55012309 3.60132859 8.55012309 3.60132859 2 3 C2 8.61 2 14.22 2 20 C5.3 19.67 8.6 19.34 12 19 C11.34 19.99 10.68 20.98 10 22 C7.1796875 22.29296875 7.1796875 22.29296875 3.875 22.1875 C2.77929688 22.16042969 1.68359375 22.13335937 0.5546875 22.10546875 C-0.70988281 22.05326172 -0.70988281 22.05326172 -2 22 C-2.05807043 18.89591193 -2.09361914 15.7919636 -2.125 12.6875 C-2.14175781 11.80642578 -2.15851563 10.92535156 -2.17578125 10.01757812 C-2.18222656 9.17001953 -2.18867188 8.32246094 -2.1953125 7.44921875 C-2.20578613 6.66893311 -2.21625977 5.88864746 -2.22705078 5.0847168 C-2 3 -2 3 0 0 Z " fill="#414041" transform="translate(222,37)"/>
<path d="M0 0 C0.99 0.33 1.98 0.66 3 1 C4.38671875 3.94140625 4.38671875 3.94140625 5.6875 7.5625 C6.12449219 8.76003906 6.56148437 9.95757812 7.01171875 11.19140625 C7.33785156 12.11824219 7.66398438 13.04507813 8 14 C8.32613281 13.07316406 8.65226562 12.14632812 8.98828125 11.19140625 C9.42527344 9.99386719 9.86226563 8.79632813 10.3125 7.5625 C10.74175781 6.36753906 11.17101562 5.17257813 11.61328125 3.94140625 C12.07089844 2.97074219 12.52851563 2.00007813 13 1 C13.99 0.67 14.98 0.34 16 0 C15.43130631 4.0623636 14.53482896 7.57548312 12.96875 11.36328125 C12.57042969 12.33201172 12.17210937 13.30074219 11.76171875 14.29882812 C11.34535156 15.29333984 10.92898438 16.28785156 10.5 17.3125 C10.08363281 18.32634766 9.66726563 19.34019531 9.23828125 20.38476562 C6.14690179 27.85309821 6.14690179 27.85309821 5 29 C3.33382885 29.04063832 1.66611905 29.042721 0 29 C0.33 27.68 0.66 26.36 1 25 C1.99 25.33 2.98 25.66 4 26 C5.713733 18.35411429 3.96026569 13.12131854 1.12890625 6.0390625 C0 3 0 3 0 0 Z " fill="#2C2B2C" transform="translate(248,74)"/>
<path d="M0 0 C1.32 0.33 2.64 0.66 4 1 C5.155 0.773125 6.31 0.54625 7.5 0.3125 C11 0 11 0 13.203125 1.46484375 C15.69179612 4.9760341 15.43966698 8.12109585 15.25 12.25 C15.23195312 12.99507812 15.21390625 13.74015625 15.1953125 14.5078125 C15.14835649 16.33909701 15.07661652 18.16971649 15 20 C14.01 20 13.02 20 12 20 C11.67 14.72 11.34 9.44 11 4 C9.35 3.67 7.7 3.34 6 3 C5.67 3.66 5.34 4.32 5 5 C4.67 5.33 4.34 5.66 4 6 C3.76472227 8.34987262 3.58613583 10.70556039 3.4375 13.0625 C3.35371094 14.35285156 3.26992187 15.64320312 3.18359375 16.97265625 C3.12300781 17.97167969 3.06242188 18.97070312 3 20 C2.01 20 1.02 20 0 20 C0 13.4 0 6.8 0 0 Z " fill="#2F2F2F" transform="translate(136,74)"/>
<path d="M0 0 C1.9375 1.375 1.9375 1.375 3 3 C3 3.66 3 4.32 3 5 C-0.3 4.34 -3.6 3.68 -7 3 C-6.67 4.32 -6.34 5.64 -6 7 C-4.18485295 8.09558815 -4.18485295 8.09558815 -2 8.6875 C1.95013123 9.95013123 1.95013123 9.95013123 3 11 C3.45232816 16.20177384 3.45232816 16.20177384 1.9375 18.875 C-1.19922133 20.69632206 -3.45300373 20.48924087 -7 20 C-9.9375 17.5 -9.9375 17.5 -12 15 C-11.01 14.67 -10.02 14.34 -9 14 C-8.34 14.66 -7.68 15.32 -7 16 C-3.91652174 16.16681109 -3.91652174 16.16681109 -1 16 C-0.67 14.68 -0.34 13.36 0 12 C-1.258125 11.731875 -2.51625 11.46375 -3.8125 11.1875 C-6.99448801 10.40467463 -9.00244311 9.74664072 -11 7 C-10.39816251 4.97954558 -9.72693904 2.97888961 -9 1 C-5.95016004 -0.52491998 -3.3576631 -0.23562548 0 0 Z " fill="#2E2E2E" transform="translate(223,74)"/>
<path d="M0 0 C2.64 0 5.28 0 8 0 C8.66 2.64 9.32 5.28 10 8 C9.34 8 8.68 8 8 8 C7.67 5.69 7.34 3.38 7 1 C5.68 1.33 4.36 1.66 3 2 C3 3.65 3 5.3 3 7 C4.32 7 5.64 7 7 7 C7.042721 8.66611905 7.04063832 10.33382885 7 12 C6.67 12.33 6.34 12.66 6 13 C5.92755947 15.01964199 5.91622812 17.04167124 5.9375 19.0625 C5.94652344 20.16722656 5.95554687 21.27195312 5.96484375 22.41015625 C5.97644531 23.26480469 5.98804687 24.11945312 6 25 C4.02 25 2.04 25 0 25 C0 16.75 0 8.5 0 0 Z " fill="#2D2A29" transform="translate(109,35)"/>
<path d="M0 0 C0.99 0 1.98 0 3 0 C3 2.31 3 4.62 3 7 C4.32 7 5.64 7 7 7 C7 7.99 7 8.98 7 10 C5.68 10 4.36 10 3 10 C3 14.62 3 19.24 3 24 C4.32 23.67 5.64 23.34 7 23 C7 24.32 7 25.64 7 27 C4.625 27.125 4.625 27.125 2 27 C0 25 0 25 -0.1953125 21.5234375 C-0.18201493 20.14049032 -0.15816232 18.75761346 -0.125 17.375 C-0.11597656 16.66859375 -0.10695312 15.9621875 -0.09765625 15.234375 C-0.07407603 13.48943902 -0.03820461 11.74467705 0 10 C-1.32 10 -2.64 10 -4 10 C-3.67 9.01 -3.34 8.02 -3 7 C-2.01 7 -1.02 7 0 7 C0 4.69 0 2.38 0 0 Z " fill="#2C2A2C" transform="translate(240,67)"/>
<path d="M0 0 C1.84288788 3.68577577 2.24701045 4.72122653 2.1953125 8.546875 C2.18564453 9.81337891 2.18564453 9.81337891 2.17578125 11.10546875 C2.15902344 11.97816406 2.14226562 12.85085937 2.125 13.75 C2.11597656 14.63816406 2.10695313 15.52632812 2.09765625 16.44140625 C2.07414577 18.62788058 2.04128499 20.81380094 2 23 C2.78375 22.195625 3.5675 21.39125 4.375 20.5625 C7 18 7 18 9 17 C9 18.98 9 20.96 9 23 C8.01 22.67 7.02 22.34 6 22 C6 22.66 6 23.32 6 24 C5.34 24 4.68 24 4 24 C4 24.66 4 25.32 4 26 C3.34 26 2.68 26 2 26 C1.34 26.99 0.68 27.98 0 29 C-0.4125 28.05125 -0.825 27.1025 -1.25 26.125 C-3.08242637 22.85281005 -3.72079678 22.37514974 -7 21 C-9.18994248 17.71508627 -9.35277339 16.16904361 -9.625 12.3125 C-9.69976562 11.31863281 -9.77453125 10.32476562 -9.8515625 9.30078125 C-9.90054688 8.54152344 -9.94953125 7.78226562 -10 7 C-9.67 7 -9.34 7 -9 7 C-8.84144531 7.58007812 -8.68289062 8.16015625 -8.51953125 8.7578125 C-8.28621094 9.53898437 -8.05289063 10.32015625 -7.8125 11.125 C-7.59207031 11.89070313 -7.37164062 12.65640625 -7.14453125 13.4453125 C-5.76647307 16.82951732 -5.76647307 16.82951732 -1 22 C-0.67 14.74 -0.34 7.48 0 0 Z " fill="#739E59" transform="translate(67,62)"/>
<path d="M0 0 C0.99 0 1.98 0 3 0 C4.32 3.96 5.64 7.92 7 12 C9.28459758 9.71540242 9.97129748 7.87462656 11.125 4.875 C11.47820312 3.96492188 11.83140625 3.05484375 12.1953125 2.1171875 C12.46085938 1.41851562 12.72640625 0.71984375 13 0 C13.99 0 14.98 0 16 0 C14.07443364 6.85618326 11.7527517 13.43252132 9 20 C8.01 20 7.02 20 6 20 C4.99422987 17.23113877 3.99519853 14.46015896 3 11.6875 C2.71382812 10.90181641 2.42765625 10.11613281 2.1328125 9.30664062 C1.86210937 8.54931641 1.59140625 7.79199219 1.3125 7.01171875 C1.06113281 6.31522217 0.80976563 5.61872559 0.55078125 4.90112305 C0 3 0 3 0 0 Z " fill="#2F2F2F" transform="translate(162,74)"/>
<path d="M0 0 C8.27961798 0.34715379 8.27961798 0.34715379 11 2.8125 C13.31559855 7.87787183 13.31559855 7.87787183 12.4375 11 C10.31940536 13.94691428 8.23056297 15.35424151 5 17 C1.125 16.75 1.125 16.75 -2 16 C-2.33 14.68 -2.66 13.36 -3 12 C-2.443125 12.350625 -1.88625 12.70125 -1.3125 13.0625 C1.57168632 14.23176473 3.07286212 13.94934202 6 13 C7.39431504 10.21136993 7.25660094 8.07921132 7 5 C4.08235 3.0549 2.37462715 2.54723683 -1 2 C-0.67 1.34 -0.34 0.68 0 0 Z " fill="#454344" transform="translate(204,43)"/>
<path d="M0 0 C0.99 0.33 1.98 0.66 3 1 C3 8.59 3 16.18 3 24 C2.01 24 1.02 24 0 24 C-0.02699725 21.72923158 -0.04639453 19.45837179 -0.0625 17.1875 C-0.07410156 15.92292969 -0.08570313 14.65835938 -0.09765625 13.35546875 C0 10 0 10 1 7 C-0.32 7 -1.64 7 -3 7 C-2.25 2.25 -2.25 2.25 0 0 Z " fill="#3F3E3F" transform="translate(129,35)"/>
<path d="M0 0 C1.32 0.33 2.64 0.66 4 1 C6.68149993 0.61432869 6.68149993 0.61432869 9 0 C9 0.99 9 1.98 9 3 C7.35 3.66 5.7 4.32 4 5 C3.67 9.95 3.34 14.9 3 20 C2.01 20 1.02 20 0 20 C0 13.4 0 6.8 0 0 Z " fill="#292829" transform="translate(201,74)"/>
<path d="M0 0 C1.77503906 0.03480469 1.77503906 0.03480469 3.5859375 0.0703125 C5.36871094 0.09738281 5.36871094 0.09738281 7.1875 0.125 C8.10273438 0.14820313 9.01796875 0.17140625 9.9609375 0.1953125 C9.9609375 3.4953125 9.9609375 6.7953125 9.9609375 10.1953125 C9.6309375 10.1953125 9.3009375 10.1953125 8.9609375 10.1953125 C8.9609375 7.2253125 8.9609375 4.2553125 8.9609375 1.1953125 C6.9809375 2.1853125 6.9809375 2.1853125 4.9609375 3.1953125 C4.6309375 3.1953125 4.3009375 3.1953125 3.9609375 3.1953125 C4.2909375 3.8553125 4.6209375 4.5153125 4.9609375 5.1953125 C3.754375 5.164375 3.754375 5.164375 2.5234375 5.1328125 C0.02738865 4.89897629 0.02738865 4.89897629 -1.0390625 6.1953125 C-1.07970082 7.86148365 -1.0817835 9.52919345 -1.0390625 11.1953125 C-0.1109375 11.411875 -0.1109375 11.411875 0.8359375 11.6328125 C2.9609375 12.1953125 2.9609375 12.1953125 4.9609375 13.1953125 C3.9609375 14.1953125 3.9609375 14.1953125 1.5859375 14.3828125 C-1.0390625 14.1953125 -1.0390625 14.1953125 -4.0390625 12.1953125 C-4.2265625 9.0703125 -4.2265625 9.0703125 -4.0390625 6.1953125 C-5.0290625 6.1953125 -6.0190625 6.1953125 -7.0390625 6.1953125 C-4.27616497 0.2748178 -4.27616497 0.2748178 0 0 Z " fill="#323031" transform="translate(184.0390625,41.8046875)"/>
<path d="M0 0 C1.32 0.33 2.64 0.66 4 1 C4 4.63 4 8.26 4 12 C2.02 12 0.04 12 -2 12 C-2.05395478 10.37536158 -2.09277195 8.75021459 -2.125 7.125 C-2.14820312 6.22007813 -2.17140625 5.31515625 -2.1953125 4.3828125 C-2 2 -2 2 0 0 Z " fill="#302E2F" transform="translate(111,48)"/>
<path d="M0 0 C0.66 0.66 1.32 1.32 2 2 C0.35 2.33 -1.3 2.66 -3 3 C-3 4.32 -3 5.64 -3 7 C-3.66 7 -4.32 7 -5 7 C-4.59504762 14.39570921 -4.11671555 21.59602282 -2.40234375 28.81640625 C-1.95402627 31.24950791 -1.93492008 33.53130164 -2 36 C-6.60430602 29.09354097 -6.26162761 21.50847981 -6.125 13.5 C-6.11597656 12.48679687 -6.10695312 11.47359375 -6.09765625 10.4296875 C-6.07429007 7.95287199 -6.04153168 5.47656621 -6 3 C-4.02 2.01 -2.04 1.02 0 0 Z " fill="#679F48" transform="translate(42,35)"/>
<path d="M0 0 C0.99 0 1.98 0 3 0 C3.1946838 2.77050026 3.38102792 5.54113002 3.5625 8.3125 C3.61857422 9.09818359 3.67464844 9.88386719 3.73242188 10.69335938 C3.78076172 11.45068359 3.82910156 12.20800781 3.87890625 12.98828125 C3.94960327 14.03302612 3.94960327 14.03302612 4.02172852 15.09887695 C4 17 4 17 3 20 C2.01 20 1.02 20 0 20 C0 13.4 0 6.8 0 0 Z " fill="#2B2B2B" transform="translate(156,74)"/>
<path d="M0 0 C0.33 0.66 0.66 1.32 1 2 C0.0625 4.125 0.0625 4.125 -1 6 C-0.01 6.33 0.98 6.66 2 7 C-1.44786802 8.72393401 -5.22993228 8.50222927 -9 8 C-11.5625 6.125 -11.5625 6.125 -13 4 C-13 3.34 -13 2.68 -13 2 C-11.02 2 -9.04 2 -7 2 C-7 2.66 -7 3.32 -7 4 C-4.56282742 3.72965366 -4.56282742 3.72965366 -2 3 C-1.34 2.01 -0.68 1.02 0 0 Z " fill="#353434" transform="translate(190,58)"/>
<path d="M0 0 C7.09774436 -0.60150376 7.09774436 -0.60150376 11 2 C13.74637221 6.11955831 13.63025284 8.11554047 13 13 C11.5 15 11.5 15 10 16 C10 14.68 10 13.36 10 12 C9.1646875 13.0209375 9.1646875 13.0209375 8.3125 14.0625 C7.549375 14.701875 6.78625 15.34125 6 16 C3.25 15.75 3.25 15.75 1 15 C1 14.67 1 14.34 1 14 C2.98 14 4.96 14 7 14 C7.33 11.36 7.66 8.72 8 6 C8.66 6.66 9.32 7.32 10 8 C9.67 6.35 9.34 4.7 9 3 C4.545 2.01 4.545 2.01 0 1 C0 0.67 0 0.34 0 0 Z " fill="#333232" transform="translate(142,42)"/>
<path d="M0 0 C0.99 0.33 1.98 0.66 3 1 C3 7.27 3 13.54 3 20 C2.01 20 1.02 20 0 20 C0 13.4 0 6.8 0 0 Z " fill="#2E2D2D" transform="translate(231,74)"/>
<path d="M0 0 C0.66 0.33 1.32 0.66 2 1 C2.40729228 3.32156597 2.74438677 5.6568787 3 8 C2.08476562 7.98839844 1.16953125 7.97679688 0.2265625 7.96484375 C-0.96195313 7.95582031 -2.15046875 7.94679688 -3.375 7.9375 C-5.15003906 7.92009766 -5.15003906 7.92009766 -6.9609375 7.90234375 C-9.91921521 7.78533407 -9.91921521 7.78533407 -12 9 C-12.33 8.01 -12.66 7.02 -13 6 C-12 5 -12 5 -9.49609375 4.90234375 C-7.98208984 4.91974609 -7.98208984 4.91974609 -6.4375 4.9375 C-5.42558594 4.94652344 -4.41367188 4.95554687 -3.37109375 4.96484375 C-2.19740234 4.98224609 -2.19740234 4.98224609 -1 5 C-0.67 3.35 -0.34 1.7 0 0 Z " fill="#272727" transform="translate(194,77)"/>
<path d="M0 0 C1.32 0 2.64 0 4 0 C4.12375 1.134375 4.2475 2.26875 4.375 3.4375 C4.684375 5.2009375 4.684375 5.2009375 5 7 C5.66 7.33 6.32 7.66 7 8 C7 9.32 7 10.64 7 12 C6.01 11.67 5.02 11.34 4 11 C4 9.35 4 7.7 4 6 C3.0409375 6.2784375 3.0409375 6.2784375 2.0625 6.5625 C1.381875 6.706875 0.70125 6.85125 0 7 C-1 6 -1 6 -1.125 3.5 C-1 1 -1 1 0 0 Z " fill="#3C393B" transform="translate(112,36)"/>
<path d="M0 0 C0.33 2.97 0.66 5.94 1 9 C3.97 9.33 6.94 9.66 10 10 C8 12 8 12 5.25 12.4375 C0.69130849 11.82382999 -0.83486585 10.31585483 -4 7 C-4 3 -4 3 -2.5625 1.25 C-1 0 -1 0 0 0 Z " fill="#373636" transform="translate(141,49)"/>
<path d="M0 0 C1.91541138 -0.10841951 3.83259773 -0.18578079 5.75 -0.25 C6.81734375 -0.29640625 7.8846875 -0.3428125 8.984375 -0.390625 C12.63802112 0.08264522 13.72228105 1.19155042 16 4 C15.67 4.99 15.34 5.98 15 7 C14.01 6.34 13.02 5.68 12 5 C12 4.34 12 3.68 12 3 C10.20909747 2.80533668 8.41723495 2.61948787 6.625 2.4375 C5.62726563 2.33308594 4.62953125 2.22867188 3.6015625 2.12109375 C1.015963 1.78855292 1.015963 1.78855292 -1 3 C-0.67 2.01 -0.34 1.02 0 0 Z " fill="#474747" transform="translate(222,37)"/>
<path d="M0 0 C0.66 0 1.32 0 2 0 C2 6.6 2 13.2 2 20 C1.01 19.34 0.02 18.68 -1 18 C-1.2487793 16.12060547 -1.2487793 16.12060547 -1.07421875 13.8671875 C-1.01943359 13.06152344 -0.96464844 12.25585938 -0.90820312 11.42578125 C-0.83537109 10.58402344 -0.76253906 9.74226563 -0.6875 8.875 C-0.5956543 7.60076172 -0.5956543 7.60076172 -0.50195312 6.30078125 C-0.34848609 4.19946335 -0.17602278 2.09954876 0 0 Z " fill="#322E30" transform="translate(110,67)"/>
<path d="M0 0 C0.99 0.33 1.98 0.66 3 1 C2.67 2.98 2.34 4.96 2 7 C4.64 7.66 7.28 8.32 10 9 C9.67 9.66 9.34 10.32 9 11 C5.625 10.6875 5.625 10.6875 2 10 C-0.13262124 6.80106814 -0.59021548 4.77001757 -1 1 C-0.67 0.67 -0.34 0.34 0 0 Z " fill="#424041" transform="translate(178,47)"/>
<path d="M0 0 C3.25295114 -0.22179212 5.42797793 -0.28601103 8.375 1.1875 C10 3 10 3 10.25 5.6875 C10.1675 6.450625 10.085 7.21375 10 8 C9.01 8 8.02 8 7 8 C6.79375 7.195625 6.5875 6.39125 6.375 5.5625 C5.92125 4.716875 5.4675 3.87125 5 3 C1.94727535 2.10169161 1.94727535 2.10169161 -1 2 C-0.67 1.34 -0.34 0.68 0 0 Z " fill="#454445" transform="translate(252,36)"/>
<path d="M0 0 C4.29 0 8.58 0 13 0 C12.34 0.66 11.68 1.32 11 2 C11 2.99 11 3.98 11 5 C9.35 5 7.7 5 6 5 C6 4.34 6 3.68 6 3 C5.34 3 4.68 3 4 3 C4 2.34 4 1.68 4 1 C2.68 1.33 1.36 1.66 0 2 C0 1.34 0 0.68 0 0 Z " fill="#2F2D2E" transform="translate(158,42)"/>
<path d="M0 0 C0.33 0 0.66 0 1 0 C1.04898438 0.59167969 1.09796875 1.18335938 1.1484375 1.79296875 C1.62407596 6.88670474 1.62407596 6.88670474 3.125 11.75 C4.22408592 14.57622094 3.94895899 16.15312303 3 19 C2.34 19.33 1.68 19.66 1 20 C0.11978631 13.28837062 -0.11381955 6.76594019 0 0 Z " fill="#3B3B3B" transform="translate(244,39)"/>
<path d="M0 0 C1 3 1 3 0 6 C-3.3 6 -6.6 6 -10 6 C-10.33 4.68 -10.66 3.36 -11 2 C-9.8553125 2.495 -9.8553125 2.495 -8.6875 3 C-6.00930865 4.17436686 -6.00930865 4.17436686 -3 4 C-1.29467677 2.05990478 -1.29467677 2.05990478 0 0 Z " fill="#454445" transform="translate(152,53)"/>
<path d="M0 0 C1.98567708 0.29296875 3.97135417 0.5859375 5.95703125 0.87890625 C8.2025342 1.13904799 8.2025342 1.13904799 11 0 C10.67 1.98 10.34 3.96 10 6 C9.484375 5.525625 8.96875 5.05125 8.4375 4.5625 C5.33217325 2.57190593 2.63367496 2.34939182 -1 2 C-0.67 1.34 -0.34 0.68 0 0 Z " fill="#403E3F" transform="translate(182,43)"/>
<path d="M0 0 C-0.33 5.61 -0.66 11.22 -1 17 C-0.34 17.33 0.32 17.66 1 18 C0.01 18 -0.98 18 -2 18 C-2.03738281 16.86820313 -2.07476562 15.73640625 -2.11328125 14.5703125 C-2.17893082 13.08850795 -2.24537851 11.60673861 -2.3125 10.125 C-2.33505859 9.37863281 -2.35761719 8.63226563 -2.38085938 7.86328125 C-2.47811945 5.900396 -2.73042294 3.94671678 -3 2 C-3.99 1.34 -4.98 0.68 -6 0 C-3 -1 -3 -1 0 0 Z " fill="#292929" transform="translate(150,76)"/>
<path d="M0 0 C0.66 0.33 1.32 0.66 2 1 C1.61271765 6.71241466 1.12989477 9.73688282 -3 14 C-3.66 13.67 -4.32 13.34 -5 13 C-4.34 11.02 -3.68 9.04 -3 7 C-2.34 7.33 -1.68 7.66 -1 8 C-0.67 5.36 -0.34 2.72 0 0 Z " fill="#303030" transform="translate(239,45)"/>
<path d="M0 0 C1.66611905 -0.042721 3.33382885 -0.04063832 5 0 C6 1 6 1 6.09765625 3.72265625 C6.08605469 4.82480469 6.07445312 5.92695312 6.0625 7.0625 C6.05347656 8.16722656 6.04445312 9.27195312 6.03515625 10.41015625 C6.02355469 11.26480469 6.01195312 12.11945312 6 13 C5.67 13 5.34 13 5 13 C4.855625 11.7625 4.71125 10.525 4.5625 9.25 C4.12558842 5.0417673 4.12558842 5.0417673 3 1 C2.01 0.67 1.02 0.34 0 0 Z " fill="#464445" transform="translate(166,43)"/>
<path d="M0 0 C6.75 0.75 6.75 0.75 9 3 C9.125 5.625 9.125 5.625 9 8 C7.5 6.6875 7.5 6.6875 6 5 C6 4.01 6 3.02 6 2 C3.69 2 1.38 2 -1 2 C-0.67 1.34 -0.34 0.68 0 0 Z " fill="#474546" transform="translate(144,43)"/>
<path d="M0 0 C0.33 0 0.66 0 1 0 C1.33 3.3 1.66 6.6 2 10 C1.34 10 0.68 10 0 10 C-0.33 10.66 -0.66 11.32 -1 12 C-1.02687279 10.18757948 -1.04633715 8.37504767 -1.0625 6.5625 C-1.07410156 5.55316406 -1.08570313 4.54382813 -1.09765625 3.50390625 C-1 1 -1 1 0 0 Z " fill="#444444" transform="translate(158,81)"/>
<path d="M0 0 C1.98 0.99 3.96 1.98 6 3 C5.34 4.98 4.68 6.96 4 9 C3.67 8.01 3.34 7.02 3 6 C2.34 5.67 1.68 5.34 1 5 C0.375 2.4375 0.375 2.4375 0 0 Z " fill="#77B248" transform="translate(56,48)"/>
<path d="M0 0 C5.625 -0.25 5.625 -0.25 9 2 C8.67 2.66 8.34 3.32 8 4 C5.36 3.67 2.72 3.34 0 3 C0 2.01 0 1.02 0 0 Z " fill="#3F3F3F" transform="translate(249,45)"/>
<path d="M0 0 C0.66 0.66 1.32 1.32 2 2 C0.35 2.33 -1.3 2.66 -3 3 C-3 4.32 -3 5.64 -3 7 C-3.99 7 -4.98 7 -6 7 C-6 5.68 -6 4.36 -6 3 C-4.02 2.01 -2.04 1.02 0 0 Z " fill="#2E6415" transform="translate(42,35)"/>
<path d="M0 0 C0.66 0 1.32 0 2 0 C2 0.66 2 1.32 2 2 C3.98 2.66 5.96 3.32 8 4 C7.67 5.65 7.34 7.3 7 9 C4.03595495 6.19195732 1.55500981 3.81684226 0 0 Z " fill="#66A148" transform="translate(68,45)"/>
<path d="M0 0 C0.66 1.32 1.32 2.64 2 4 C1 5 1 5 -1.5625 5.0625 C-2.7690625 5.0315625 -2.7690625 5.0315625 -4 5 C-3.67 3.68 -3.34 2.36 -3 1 C-2.01 1.33 -1.02 1.66 0 2 C0 1.34 0 0.68 0 0 Z " fill="#212121" transform="translate(252,98)"/>
<path d="M0 0 C0.99 0.33 1.98 0.66 3 1 C2.67 3.64 2.34 6.28 2 9 C1.34 9 0.68 9 0 9 C0 6.03 0 3.06 0 0 Z " fill="#464144" transform="translate(111,50)"/>
<path d="M0 0 C1.32 0 2.64 0 4 0 C4 1.32 4 2.64 4 4 C2.35 4 0.7 4 -1 4 C-0.67 2.68 -0.34 1.36 0 0 Z " fill="#474445" transform="translate(112,36)"/>
<path d="M0 0 C0.66 0 1.32 0 2 0 C1.67 1.98 1.34 3.96 1 6 C0.01 6 -0.98 6 -2 6 C-1.125 1.125 -1.125 1.125 0 0 Z " fill="#454344" transform="translate(122,53)"/>
<path d="M0 0 C1.98 0 3.96 0 6 0 C6 0.66 6 1.32 6 2 C5.34 2 4.68 2 4 2 C4 2.99 4 3.98 4 5 C3.01 4.67 2.02 4.34 1 4 C0.3125 1.9375 0.3125 1.9375 0 0 Z " fill="#2E2B2D" transform="translate(177,60)"/>
<path d="M0 0 C0.66 0.33 1.32 0.66 2 1 C1.6875 2.9375 1.6875 2.9375 1 5 C0.01 5.33 -0.98 5.66 -2 6 C-2 2 -2 2 0 0 Z " fill="#3C3B3B" transform="translate(214,51)"/>
<path d="M0 0 C2 2 2 2 2.125 5.125 C2.08375 6.07375 2.0425 7.0225 2 8 C1.01 7.67 0.02 7.34 -1 7 C-1.04254356 5.00045254 -1.04080783 2.99958364 -1 1 C-0.67 0.67 -0.34 0.34 0 0 Z " fill="#3A3839" transform="translate(124,46)"/>
<path d="M0 0 C0.99 0 1.98 0 3 0 C3 1.32 3 2.64 3 4 C2.01 4 1.02 4 0 4 C0 2.68 0 1.36 0 0 Z " fill="#2B2B2B" transform="translate(156,67)"/>
<path d="M0 0 C0.99 0 1.98 0 3 0 C3 1.32 3 2.64 3 4 C2.01 4 1.02 4 0 4 C0 2.68 0 1.36 0 0 Z " fill="#2C2C2C" transform="translate(231,67)"/>
<path d="" fill="#FFFFFF" transform="translate(0,0)"/>
<path d="" fill="#FFFFFF" transform="translate(0,0)"/>
<path d="" fill="#FFFFFF" transform="translate(0,0)"/>
<path d="" fill="#FFFFFF" transform="translate(0,0)"/>
<path d="" fill="#FFFFFF" transform="translate(0,0)"/>
<path d="" fill="#FFFFFF" transform="translate(0,0)"/>
<path d="" fill="#FFFFFF" transform="translate(0,0)"/>
<path d="" fill="#FFFFFF" transform="translate(0,0)"/>
<path d="" fill="#FFFFFF" transform="translate(0,0)"/>
<path d="" fill="#FFFFFF" transform="translate(0,0)"/>
<path d="" fill="#FFFFFF" transform="translate(0,0)"/>
<path d="" fill="#FFFFFF" transform="translate(0,0)"/>
<path d="" fill="#FFFFFF" transform="translate(0,0)"/>
<path d="" fill="#FFFFFF" transform="translate(0,0)"/>
<path d="" fill="#FFFFFF" transform="translate(0,0)"/>
<path d="" fill="#FFFFFF" transform="translate(0,0)"/>
<path d="" fill="#FFFFFF" transform="translate(0,0)"/>
<path d="" fill="#FFFFFF" transform="translate(0,0)"/>
<path d="" fill="#FFFFFF" transform="translate(0,0)"/>
<path d="" fill="#FFFFFF" transform="translate(0,0)"/>
<path d="" fill="#FFFFFF" transform="translate(0,0)"/>
<path d="" fill="#FFFFFF" transform="translate(0,0)"/>
<path d="" fill="#FFFFFF" transform="translate(0,0)"/>
<path d="" fill="#FFFFFF" transform="translate(0,0)"/>
<path d="" fill="#FFFFFF" transform="translate(0,0)"/>
<path d="" fill="#FFFFFF" transform="translate(0,0)"/>
<path d="" fill="#FFFFFF" transform="translate(0,0)"/>
<path d="" fill="#FFFFFF" transform="translate(0,0)"/>
<path d="" fill="#FFFFFF" transform="translate(0,0)"/>
<path d="" fill="#FFFFFF" transform="translate(0,0)"/>
<path d="" fill="#FFFFFF" transform="translate(0,0)"/>
<path d="" fill="#FFFFFF" transform="translate(0,0)"/>
<path d="" fill="#FFFFFF" transform="translate(0,0)"/>
<path d="" fill="#FFFFFF" transform="translate(0,0)"/>
<path d="" fill="#FFFFFF" transform="translate(0,0)"/>
<path d="" fill="#00FFFF" transform="translate(0,0)"/>
<path d="" fill="#FFFFFF" transform="translate(0,0)"/>
<path d="" fill="#FFFFFF" transform="translate(0,0)"/>
<path d="" fill="#FFFFFF" transform="translate(0,0)"/>
<path d="" fill="#FFFFFF" transform="translate(0,0)"/>
<path d="" fill="#FFFFFF" transform="translate(0,0)"/>
<path d="" fill="#FFFFFF" transform="translate(0,0)"/>
<path d="" fill="#FFFFFF" transform="translate(0,0)"/>
<path d="" fill="#FFFFFF" transform="translate(0,0)"/>
<path d="" fill="#FFFFFF" transform="translate(0,0)"/>
<path d="" fill="#FFFFFF" transform="translate(0,0)"/>
<path d="" fill="#FFFFFF" transform="translate(0,0)"/>
<path d="" fill="#FFFFFF" transform="translate(0,0)"/>
<path d="" fill="#FFFFFF" transform="translate(0,0)"/>
<path d="" fill="#FFFFFF" transform="translate(0,0)"/>
<path d="" fill="#FFFFFF" transform="translate(0,0)"/>
<path d="" fill="#FFFFFF" transform="translate(0,0)"/>
<path d="" fill="#FFFFFF" transform="translate(0,0)"/>
<path d="" fill="#FFFFFF" transform="translate(0,0)"/>
<path d="" fill="#FFFFFF" transform="translate(0,0)"/>
<path d="" fill="#FFFFFF" transform="translate(0,0)"/>
<path d="" fill="#FFFFFF" transform="translate(0,0)"/>
<path d="" fill="#FFFFFF" transform="translate(0,0)"/>
<path d="" fill="#FFFFFF" transform="translate(0,0)"/>
<path d="" fill="#FFFFFF" transform="translate(0,0)"/>
<path d="" fill="#FFFFFF" transform="translate(0,0)"/>
<path d="" fill="#FFFFFF" transform="translate(0,0)"/>
<path d="" fill="#FFFFFF" transform="translate(0,0)"/>
<path d="" fill="#FFFFFF" transform="translate(0,0)"/>
<path d="" fill="#FFFFFF" transform="translate(0,0)"/>
<path d="" fill="#FFFFFF" transform="translate(0,0)"/>
</svg>
