<?xml version="1.0" encoding="UTF-8"?>
<svg version="1.1" xmlns="http://www.w3.org/2000/svg" width="1920" height="957">
<path d="M0 0 C0.90621094 0.50402344 1.81242187 1.00804687 2.74609375 1.52734375 C5.02347584 3.01533863 6.44645018 4.43908861 8.125 6.5625 C10.053159 8.98572686 11.34663793 10.23109196 14 12 C14.33 12.99 14.66 13.98 15 15 C16.62652316 16.70586575 18.29006566 18.3777546 20 20 C20.58007812 19.40832031 21.16015625 18.81664062 21.7578125 18.20703125 C30.65517241 9.20689655 30.65517241 9.20689655 35 6 C35.99 6 36.98 6 38 6 C38 5.34 38 4.68 38 4 C63.48175965 -10.68799103 91.25878032 -14.1018538 120 -8 C133.41708464 -4.26238356 143.03948775 3.56949666 153 13 C153.52722656 13.47953125 154.05445313 13.9590625 154.59765625 14.453125 C156.42580127 16.46968608 157.65688349 18.63322948 159 21 C159.55558594 21.96035156 160.11117188 22.92070312 160.68359375 23.91015625 C173.62597609 47.17185458 173.4387338 71.07522396 173.30418181 96.92217112 C173.28521434 101.19019521 173.28364898 105.4582281 173.28010559 109.72628784 C173.2708433 117.77933905 173.24630977 125.83226563 173.21605712 133.88526237 C173.18233014 143.06565674 173.16598147 152.24605759 173.15097082 161.42649865 C173.11975381 180.28441708 173.06481612 199.14216505 173 218 C154.85 218 136.7 218 118 218 C117.99589111 213.72160156 117.99178223 209.44320312 117.98754883 205.03515625 C117.97030788 190.85773723 117.92598293 176.68049681 117.86790943 162.50318909 C117.83337352 153.91225391 117.80791896 145.32147729 117.80444336 136.73046875 C117.8013875 129.23556884 117.78068111 121.74095214 117.73947543 114.24616146 C117.71828953 110.2839575 117.70546957 106.32215468 117.71384621 102.3598938 C118.53925358 73.47806093 118.53925358 73.47806093 105 49 C102.75503458 46.6706919 102.75503458 46.6706919 100 45 C99.40832031 44.5565625 98.81664062 44.113125 98.20703125 43.65625 C92.18311198 39.81800055 86.39368249 39.49817849 79.4375 39.4375 C78.55126953 39.42299805 77.66503906 39.40849609 76.75195312 39.39355469 C71.09279368 39.47968146 66.92514658 40.53692355 61.89477539 43.14477539 C60 44 60 44 57 44 C57 44.66 57 45.32 57 46 C55.42578125 47.515625 55.42578125 47.515625 53.3125 49.25 C42.68722046 58.37876129 38.71190084 68.34287662 37 82 C36.72280207 86.61710422 36.68928385 91.22206827 36.68115234 95.84667969 C36.67182797 97.18834012 36.66165569 98.52999488 36.65071106 99.87164307 C36.62367922 103.47411145 36.60834241 107.07654135 36.59528303 110.67908382 C36.57953356 114.45872798 36.55278178 118.23829484 36.5272522 122.0178833 C36.48067177 129.15731332 36.44382809 136.29675822 36.41057932 143.43626142 C36.37221038 151.57186224 36.3228395 159.70738503 36.27259517 167.84291983 C36.16958413 184.56189557 36.08167641 201.28090435 36 218 C17.85 218 -0.3 218 -19 218 C-19.00410889 213.68607178 -19.00821777 209.37214355 -19.01245117 204.92749023 C-19.02968591 190.63830603 -19.07400026 176.34929919 -19.13209057 162.06022549 C-19.16663861 153.40088057 -19.19208265 144.74169315 -19.19555664 136.08227539 C-19.19861079 128.52842232 -19.21929464 120.9748505 -19.26052457 113.42110592 C-19.28172571 109.42707652 -19.29452236 105.43344564 -19.28615379 101.43935966 C-19.27853085 97.66753182 -19.29476412 93.89650592 -19.32806015 90.12482452 C-19.34002755 88.10597722 -19.32781324 86.08702999 -19.31443787 84.06819153 C-19.47591224 70.96355708 -22.63731717 58.62457605 -32 49 C-34.24496542 46.6706919 -34.24496542 46.6706919 -37 45 C-37.60328125 44.5565625 -38.2065625 44.113125 -38.828125 43.65625 C-47.15147143 38.41778022 -57.51117894 38.69851579 -67 40 C-71.01707739 41.24063093 -74.37668941 42.91249596 -78 45 C-78.66 45 -79.32 45 -80 45 C-80 45.66 -80 46.32 -80 47 C-80.78375 47.2475 -81.5675 47.495 -82.375 47.75 C-85.32317108 49.15389099 -85.9024777 50.00675737 -87 53 C-87.66 53 -88.32 53 -89 53 C-89.25652344 53.66773438 -89.51304688 54.33546875 -89.77734375 55.0234375 C-90.68856484 57.24180962 -91.67194886 59.43080103 -92.69140625 61.6015625 C-92.99626953 62.25769531 -93.30113281 62.91382813 -93.61523438 63.58984375 C-94.23849967 64.92890032 -94.87364627 66.26250133 -95.52148438 67.58984375 C-99.91683677 77.20176087 -99.15576548 88.08999022 -99.20532227 98.45776367 C-99.21522186 99.75659485 -99.22512146 101.05542603 -99.23532104 102.39361572 C-99.26209373 105.91969247 -99.28325084 109.44578222 -99.30332303 112.97190261 C-99.32535542 116.67011933 -99.3526588 120.36829726 -99.37937927 124.06648254 C-99.42907499 131.05366522 -99.47409849 138.04086969 -99.51740164 145.02809459 C-99.56697305 152.98952977 -99.62181665 160.95092598 -99.67708123 168.91232336 C-99.79054582 185.27484745 -99.89676493 201.63740768 -100 218 C-118.15 218 -136.3 218 -155 218 C-155 144.08 -155 70.16 -155 -6 C-136.85 -6 -118.7 -6 -100 -6 C-99.505 3.405 -99.505 3.405 -99 13 C-96.525 10.525 -96.525 10.525 -94 8 C-91.52281366 6.11168522 -88.97516822 4.37821171 -86.3984375 2.62890625 C-84.62748919 1.42616122 -82.89554248 0.16552099 -81.1875 -1.125 C-73.00538547 -5.93800855 -64.60241648 -8.3259304 -55.3125 -9.8125 C-54.54139893 -9.93633057 -53.77029785 -10.06016113 -52.97583008 -10.18774414 C-34.06201341 -12.91610385 -16.38744818 -9.66489215 0 0 Z " fill="#000000" transform="translate(1130,404)"/>
<path d="M0 0 C18.48 0 36.96 0 56 0 C56 102.3 56 204.6 56 310 C37.52 310 19.04 310 0 310 C0 304.39 0 298.78 0 293 C-1.423125 294.134375 -2.84625 295.26875 -4.3125 296.4375 C-12.29242224 302.19284033 -20.88836082 306.33367145 -30 310 C-31.0820874 310.43650879 -31.0820874 310.43650879 -32.18603516 310.88183594 C-54.21729015 319.19378945 -87.17460117 318.57027059 -109 310 C-110.2271875 309.51917969 -111.454375 309.03835938 -112.71875 308.54296875 C-119.48170215 305.60356638 -125.76542646 301.91856119 -132 298 C-132.9178125 297.48824219 -133.835625 296.97648437 -134.78125 296.44921875 C-135.5134375 295.97097656 -136.245625 295.49273438 -137 295 C-137 294.34 -137 293.68 -137 293 C-137.680625 292.80792969 -138.36125 292.61585938 -139.0625 292.41796875 C-143.15519443 290.4423729 -145.85318504 287.54336451 -149 284.3125 C-149.60328125 283.71244141 -150.2065625 283.11238281 -150.828125 282.49414062 C-161 272.20064538 -161 272.20064538 -161 268 C-161.66 268 -162.32 268 -163 268 C-169.63236677 258.42733965 -174.30843453 247.77997544 -177.6875 236.6875 C-177.89004395 236.03692627 -178.09258789 235.38635254 -178.30126953 234.71606445 C-181.70796501 222.98015478 -182.36426802 210.96732675 -182.3125 198.8125 C-182.31100952 198.13979065 -182.30951904 197.4670813 -182.3079834 196.77398682 C-182.26377588 185.62544466 -181.5469793 174.86969838 -179 164 C-178.73316406 162.84242188 -178.46632813 161.68484375 -178.19140625 160.4921875 C-174.0989413 145.395539 -164.52659458 127.61419923 -153 117 C-152.34 117 -151.68 117 -151 117 C-150.95875 116.443125 -150.9175 115.88625 -150.875 115.3125 C-149.51022892 111.705605 -147.08919824 110.26961504 -144 108 C-143.34 108 -142.68 108 -142 108 C-141.73703125 107.39800781 -141.4740625 106.79601562 -141.203125 106.17578125 C-135.81449368 96.43075643 -118.83710409 91.01653385 -109 87 C-108.14003418 86.6455481 -108.14003418 86.6455481 -107.26269531 86.28393555 C-82.85903153 76.61891063 -50.10552203 78.40785786 -25.94921875 88.14892578 C-17.48083267 91.84642 -9.10447573 96.05357984 -2 102 C-1.34 102.33 -0.68 102.66 0 103 C0 69.01 0 35.02 0 0 Z M-116.1640625 157.609375 C-127.22922687 172.01763159 -129.98677033 191.29168252 -128 209 C-125.84422624 222.39264575 -120.56349745 235.16325976 -111 245 C-110.34 245 -109.68 245 -109 245 C-108.79375 245.556875 -108.5875 246.11375 -108.375 246.6875 C-104.76874299 252.7525686 -98.07541448 255.86882485 -92 259 C-91.12480713 259.48448608 -91.12480713 259.48448608 -90.23193359 259.97875977 C-85.3520291 262.58943052 -80.83315602 263.97590497 -75.375 264.8125 C-74.20094604 264.9973999 -74.20094604 264.9973999 -73.00317383 265.18603516 C-56.55571513 267.5272985 -41.41944162 263.90317487 -27 256 C-25.66979017 255.32712257 -24.33771078 254.65783895 -23 254 C-23 253.34 -23 252.68 -23 252 C-22.1646875 251.62875 -22.1646875 251.62875 -21.3125 251.25 C-16.0772593 248.42014016 -12.48100698 244.44742871 -8.9375 239.75 C-8.49776855 239.16863281 -8.05803711 238.58726562 -7.60498047 237.98828125 C2.85908952 223.91604636 6.18417552 207.28417803 5 190 C4.32471762 185.86913468 3.27601692 181.98164538 2 178 C1.7834375 177.21367187 1.566875 176.42734375 1.34375 175.6171875 C-0.41825125 169.59701657 -3.23186081 164.02768432 -7 159 C-7.66 159 -8.32 159 -9 159 C-9.103125 158.38125 -9.20625 157.7625 -9.3125 157.125 C-9.87525373 154.63473516 -9.87525373 154.63473516 -13 153 C-13.495 151.515 -13.495 151.515 -14 150 C-15.485 149.505 -15.485 149.505 -17 149 C-17.495 148.319375 -17.99 147.63875 -18.5 146.9375 C-18.995 146.298125 -19.49 145.65875 -20 145 C-20.99 145 -21.98 145 -23 145 C-23.495 143.515 -23.495 143.515 -24 142 C-53.97982902 119.51512823 -93.98281271 130.86375251 -116.1640625 157.609375 Z " fill="#000000" transform="translate(643,312)"/>
<path d="M0 0 C1.11375 0.2165625 2.2275 0.433125 3.375 0.65625 C14.95635504 3.243574 25.38972452 8.1061193 35 15 C35.9075 15.53625 36.815 16.0725 37.75 16.625 C40.37033074 18.22631323 42.70113091 19.96385881 45 22 C45 22.66 45 23.32 45 24 C45.58652344 24.2475 46.17304687 24.495 46.77734375 24.75 C49.32686375 26.18382496 50.71117065 27.74692804 52.5625 30 C54.67356316 32.55772463 56.19970251 34.133135 59 36 C59.33 36.99 59.66 37.98 60 39 C60.5775 39.53625 61.155 40.0725 61.75 40.625 C64.93769244 43.98978647 69 49.18807577 69 54 C69.66 54 70.32 54 71 54 C71.60479685 55.35388533 72.20879754 56.70812632 72.8125 58.0625 C73.14894531 58.81660156 73.48539063 59.57070313 73.83203125 60.34765625 C74.41017578 61.66056641 74.41017578 61.66056641 75 63 C75.72703125 64.60875 75.72703125 64.60875 76.46875 66.25 C82.89323906 81.44126095 83.45634508 97.06090325 83.375 113.3125 C83.37067963 114.22659637 83.36635925 115.14069275 83.36190796 116.08248901 C83.34327945 118.69719844 83.31257753 121.3113036 83.2734375 123.92578125 C83.26269699 124.72583588 83.25195648 125.5258905 83.2408905 126.35018921 C83.12094975 131.87905025 83.12094975 131.87905025 82 133 C79.77241743 133.09703132 77.54169074 133.12186673 75.31199646 133.12025452 C74.60468748 133.12110894 73.89737849 133.12196337 73.1686359 133.12284368 C70.78093718 133.12450055 68.39330757 133.11897377 66.00561523 133.11352539 C64.30105593 133.11324354 62.59649649 133.11340122 60.89193726 133.1139679 C56.249572 133.11425594 51.60723235 133.10835806 46.96487308 133.10139394 C42.11884105 133.09516159 37.27280849 133.0945567 32.42677307 133.09336853 C23.24344036 133.09025486 14.0601195 133.082041 4.87679201 133.07201904 C-5.57526771 133.060859 -16.02732798 133.05534773 -26.47939217 133.05032361 C-47.98626807 133.03985841 -69.49313329 133.02225829 -91 133 C-90.24057317 135.88148775 -89.4709567 138.75959401 -88.6953125 141.63671875 C-88.48302002 142.44653198 -88.27072754 143.25634521 -88.05200195 144.09069824 C-86.32330645 150.45455952 -83.78392079 155.59292193 -80 161 C-79.27683594 162.26263672 -79.27683594 162.26263672 -78.5390625 163.55078125 C-71.07847432 175.42334163 -56.02039115 181.64668806 -43 185 C-39.30957958 185.67691135 -35.74795623 185.92841557 -32 186 C-30.25783203 186.05800781 -30.25783203 186.05800781 -28.48046875 186.1171875 C-9.87089251 186.4621642 5.87484123 183.07201165 21 172 C22.66666667 171 24.33333333 170 26 169 C26.66 168.4225 27.32 167.845 28 167.25 C30 166 30 166 32.375 166.29296875 C34.88529944 166.96910595 36.75697029 167.77012937 39 169.0625 C39.76957031 169.50464844 40.53914062 169.94679688 41.33203125 170.40234375 C45.54916232 172.92768285 49.72344263 175.51996277 53.88671875 178.1328125 C56.86564144 179.91941858 59.88217355 181.47247429 63 183 C64.63080449 183.88522262 66.25642183 184.78011527 67.875 185.6875 C68.65617188 186.12449219 69.43734375 186.56148437 70.2421875 187.01171875 C70.82226562 187.33785156 71.40234375 187.66398438 72 188 C71.51061681 192.27461239 69.04257174 194.32551066 66.0625 197.25 C65.16660156 198.14203125 64.27070312 199.0340625 63.34765625 199.953125 C61 202 61 202 59 202 C58.67 202.99 58.34 203.98 58 205 C55.33862801 207.38122757 53.4032423 208.8655859 50 210 C49.07960938 210.928125 49.07960938 210.928125 48.140625 211.875 C45.82265344 214.17605206 43.6342653 215.48370053 40.75 217 C39.77675781 217.51304687 38.80351563 218.02609375 37.80078125 218.5546875 C36.41439453 219.27011719 36.41439453 219.27011719 35 220 C34.29230469 220.37382813 33.58460938 220.74765625 32.85546875 221.1328125 C30.92185822 222.13309167 28.97212883 223.07811729 27 224 C26.33613281 224.31582031 25.67226563 224.63164063 24.98828125 224.95703125 C11.12107424 231.03149715 -3.93950891 233.80183564 -19 234 C-20.31484375 234.02707031 -21.6296875 234.05414062 -22.984375 234.08203125 C-26.99310849 234.14058853 -30.99159362 234.082607 -35 234 C-36.89298828 233.97486328 -36.89298828 233.97486328 -38.82421875 233.94921875 C-59.34089107 233.22314845 -78.78556274 227.18778139 -96 216 C-97.010625 215.360625 -98.02125 214.72125 -99.0625 214.0625 C-107.5973535 208.06994329 -107.5973535 208.06994329 -111 205 C-111 204.34 -111 203.68 -111 203 C-111.86625 202.6596875 -111.86625 202.6596875 -112.75 202.3125 C-115.58373895 200.65948561 -117.03144113 198.60357787 -119 196 C-119.7425 195.2575 -119.7425 195.2575 -120.5 194.5 C-140.71138321 174.28861679 -145.14346515 144.18303397 -145.25 117 C-145.14203625 89.45237474 -139.82909487 65.29649468 -123.875 42.5 C-123.44292236 41.87561035 -123.01084473 41.2512207 -122.56567383 40.60791016 C-119.3571192 36.11903973 -119.3571192 36.11903973 -116 35 C-115.67 34.34 -115.34 33.68 -115 33 C-114 31 -114 31 -111 30 C-109.79117904 27.99983534 -109.79117904 27.99983534 -109 26 C-108.34 26 -107.68 26 -107 26 C-106.505 24.515 -106.505 24.515 -106 23 C-104.44140625 21.61328125 -104.44140625 21.61328125 -102.5625 20.3125 C-101.94503906 19.87550781 -101.32757812 19.43851562 -100.69140625 18.98828125 C-99 18 -99 18 -97 18 C-97 17.34 -97 16.68 -97 16 C-95.35 15.67 -93.7 15.34 -92 15 C-92 14.34 -92 13.68 -92 13 C-62.9168874 -2.24898336 -32.16405613 -6.28906125 0 0 Z M-68 57 C-69.18493337 57.75404851 -70.37210095 58.50460994 -71.5625 59.25 C-72.366875 59.8275 -73.17125 60.405 -74 61 C-74 61.66 -74 62.32 -74 63 C-74.84691406 63.29583984 -74.84691406 63.29583984 -75.7109375 63.59765625 C-78.92699387 65.56790239 -80.62673792 68.33020247 -82.625 71.4375 C-83.21667969 72.28731445 -83.21667969 72.28731445 -83.8203125 73.15429688 C-87.60449761 78.97759525 -87.61701036 82.393557 -89 90 C-50.72 90 -12.44 90 27 90 C26.76488955 80.12442088 26.76488955 80.12442088 23.1875 72.5625 C22.64351562 71.75425781 22.09953125 70.94601562 21.5390625 70.11328125 C21.03117187 69.41589844 20.52328125 68.71851563 20 68 C19.360625 67.0925 18.72125 66.185 18.0625 65.25 C15.29262792 62.22832137 12.33764156 59.39225048 9 57 C8.34 57 7.68 57 7 57 C6.505 55.515 6.505 55.515 6 54 C-15.25971474 37.53920145 -47.53464463 42.24590659 -68 57 Z " fill="#000000" transform="translate(868,394)"/>
<path d="M0 0 C18.48 0 36.96 0 56 0 C58.7345762 5.46915239 61.02153714 10.52395896 62.9375 16.25 C65.0423115 22.37667194 67.3169924 28.37585446 69.86328125 34.3359375 C70.88552382 36.73170874 71.8588524 39.1388192 72.8125 41.5625 C74.80196828 46.57271196 76.90179908 51.53465656 79 56.5 C82.47638362 64.73546306 85.9211147 72.9577351 88.9375 81.375 C91.51640946 88.52971768 94.48540212 95.50898886 97.51171875 102.484375 C100.20810359 108.70575665 102.75366419 114.91932495 105.01171875 121.3125 C106.04637817 124.1261193 107.19551746 126.86912967 108.375 129.625 C110.80015601 135.34357776 112.86651225 141.15662625 114.85693359 147.03759766 C116.28721631 151.2070529 117.92978835 155.09232239 120 159 C124.04553726 151.20736676 127.40915486 143.32725083 130.44140625 135.09375 C132.98521737 128.20037562 135.6167031 121.53326298 139 115 C140.03651651 112.34110982 141.02846685 109.68197885 142 107 C144.74780115 99.68615011 147.60877071 92.42032958 150.5625 85.1875 C150.98354004 84.14831421 150.98354004 84.14831421 151.41308594 83.08813477 C152.82209796 79.66092985 154.31643223 76.33849483 156.02734375 73.05078125 C157.77440977 69.62406814 158.97154323 66.19018034 160.13330078 62.53076172 C161.93820799 57.26043268 164.23783325 52.17738774 166.4375 47.0625 C169.41267325 40.11239892 172.36810578 33.16234733 175.15307617 26.13354492 C176.21783156 23.45124533 177.32262351 20.78681585 178.4375 18.125 C178.80746094 17.24070312 179.17742187 16.35640625 179.55859375 15.4453125 C180.03425781 14.30835938 180.50992187 13.17140625 181 12 C183.475 6.06 183.475 6.06 186 0 C204.81 0 223.62 0 243 0 C241.65461869 4.03614392 240.35044455 7.57631406 238.5625 11.375 C236.7991668 15.19555527 235.1853828 19.00899129 233.74609375 22.9609375 C231.55777515 28.94157786 229.27829842 34.5361693 226 40 C224.25022901 43.98650655 222.73555241 48.07055216 221.18505859 52.13769531 C220.58111545 53.72110399 219.97543252 55.30384999 219.36816406 56.88598633 C218.75760986 58.47787987 218.15133917 60.07142433 217.54980469 61.66674805 C215.99954144 65.70975421 214.31247348 69.32077048 212 73 C211.3777667 74.37893227 210.79496555 75.77624488 210.25 77.1875 C209.74919922 78.46753906 209.74919922 78.46753906 209.23828125 79.7734375 C208.55228783 81.56091562 207.86706943 83.34869385 207.18505859 85.13769531 C206.58111545 86.72110399 205.97543252 88.30384999 205.36816406 89.88598633 C204.75760986 91.47787987 204.15133917 93.07142433 203.54980469 94.66674805 C201.99900978 98.71114074 200.30459864 102.31520997 198 106 C197.33753471 107.50489161 196.71229006 109.02671049 196.125 110.5625 C194.6321148 114.39727763 193.09213704 118.20524392 191.5 122 C189.96116635 125.67349617 188.45683825 129.35578656 187 133.0625 C185.24036119 137.49339772 183.28036116 141.81376208 181.2890625 146.14453125 C178.32933929 152.7007666 175.63644746 159.370794 173 166.0625 C171.22228693 170.54262367 169.2327269 174.90721255 167.21875 179.28515625 C165.72142449 182.62054481 164.36837165 186.00023182 163.03125 189.40234375 C161.47998617 193.30988333 159.84308487 197.18098948 158.21875 201.05859375 C157.11748955 203.71644349 156.05232866 206.38500249 155 209.0625 C153.2744629 213.40040403 151.37108482 217.63757006 149.421875 221.87890625 C145.3978271 230.71191249 141.50438098 239.59798634 137.96484375 248.63671875 C136.50995185 252.20032036 134.88092533 255.6799952 133.24609375 259.1640625 C132.27631779 261.37113881 131.43072452 263.54419809 130.6171875 265.80859375 C128.9869997 270.21388954 126.90925502 274.30466906 124.6875 278.4375 C124.28797119 279.18394775 123.88844238 279.93039551 123.47680664 280.69946289 C118.94804214 289.06777255 113.76471853 296.47330877 107.734375 303.8359375 C105.88058444 306.084325 105.88058444 306.084325 104 309 C103.34 309 102.68 309 102 309 C102 309.66 102 310.32 102 311 C85.64280947 326.2052757 69.02432385 328.77587004 47.5625 328.3125 C40.776875 328.209375 33.99125 328.10625 27 328 C27 312.16 27 296.32 27 280 C38.9375 279.6875 38.9375 279.6875 42.64428711 279.61206055 C48.57914595 279.41408741 53.66107802 278.83998789 59.19750977 276.63208008 C61 276 61 276 64 276 C64.226875 275.443125 64.45375 274.88625 64.6875 274.3125 C66.01855531 271.96730732 67.57927064 270.46157134 69.50390625 268.60546875 C74.21927571 263.54537254 78.03920996 257.84252299 80.19140625 251.265625 C81.27476927 248.23011509 82.63671045 245.35740623 84 242.4375 C84.51691406 241.32246094 85.03382812 240.20742188 85.56640625 239.05859375 C86.39344274 237.294099 87.22947786 235.53364177 88.08984375 233.78515625 C90.32385145 229.08035662 89.77156064 226.43338355 88.23828125 221.59765625 C86.3568403 216.44552471 84.32762609 211.39883746 82.125 206.375 C79.49972852 200.35543813 77.25320949 194.26737666 75.18017578 188.03662109 C73.76594938 183.86620896 72.05991402 180.033514 70.04052734 176.12304688 C68.111172 172.1864739 66.58782682 168.08320873 65 164 C64.38198835 162.44981001 63.7622289 160.90031555 63.140625 159.3515625 C54.9140625 138.78515625 54.9140625 138.78515625 53.8894043 136.22314453 C53.21412266 134.53518421 52.53850513 132.84735823 51.86254883 131.15966797 C50.37061696 127.4336958 48.88191459 123.70664809 47.41015625 119.97265625 C44.57455403 112.79457419 41.58887454 105.70011382 38.47119141 98.64111328 C36.1915509 93.47146458 34.0574684 88.2609828 32 83 C31.35502345 81.39548866 30.70916491 79.79133163 30.0625 78.1875 C28.52408778 74.34747888 27.03667938 70.49011407 25.5625 66.625 C23.61255303 61.53741108 21.55767329 56.50621387 19.4453125 51.484375 C16.54739667 44.49804818 13.77112178 37.46207264 10.97119141 30.43603516 C9.81784125 27.543092 8.6616033 24.65131351 7.50415039 21.76000977 C6.77477722 19.93693102 6.04750769 18.1130111 5.3203125 16.2890625 C4.47179383 14.17529706 3.61323542 12.06551912 2.7421875 9.9609375 C2.37351562 9.06632812 2.00484375 8.17171875 1.625 7.25 C1.30789063 6.49203125 0.99078125 5.7340625 0.6640625 4.953125 C0 3 0 3 0 0 Z " fill="#000000" transform="translate(1307,398)"/>
<path d="M0 0 C17.82 0 35.64 0 54 0 C54.01458252 3.94517578 54.02916504 7.89035156 54.04418945 11.95507812 C54.09467585 25.03484657 54.16114838 38.11449362 54.23571491 51.1941452 C54.28050943 59.11916262 54.31996082 67.04413673 54.34643555 74.96923828 C54.36954903 81.88397568 54.40309328 88.79857415 54.44870156 95.71320105 C54.47245566 99.36790811 54.49130011 103.0224791 54.49761391 106.67726135 C53.96677542 138.39532433 53.96677542 138.39532433 68 166 C78.90242368 175.73430686 91.71258595 179.67612982 106.21484375 179.3515625 C114.78858859 178.55523945 122.48631436 175.9476309 129.51171875 170.953125 C131 170 131 170 133 170 C133 169.34 133 168.68 133 168 C134.546875 166.7934375 134.546875 166.7934375 136.125 165.5625 C145.71656006 157.56306125 148.63004113 144.82238754 149.78323174 132.92523575 C150.17798041 127.59819702 150.17927087 122.27066314 150.20532227 116.93115234 C150.21522186 115.66172791 150.22512146 114.39230347 150.23532104 113.08441162 C150.26211987 109.63472002 150.28326321 106.18501509 150.30332303 102.73527861 C150.32533886 99.11846774 150.35265051 95.50169677 150.37937927 91.88491821 C150.42909697 85.04999149 150.47411252 78.21504237 150.51740164 71.38007224 C150.56695399 63.59277955 150.62180479 55.80552694 150.67708123 48.01827312 C150.79057967 32.01221783 150.8967882 16.00612542 151 0 C168.82 0 186.64 0 205 0 C205.02260787 19.23720994 205.04101463 38.47440905 205.05181217 57.71162891 C205.05695979 66.64459014 205.06397316 75.57754251 205.07543945 84.51049805 C205.08543326 92.30003751 205.09186458 100.08957054 205.09408849 107.87911624 C205.09538764 112.00034454 205.09842285 116.12155448 205.10573006 120.24277687 C205.1125645 124.1291915 205.11460198 128.01558036 205.11310768 131.90200043 C205.11338069 133.32126951 205.11534147 134.74053954 205.11920547 136.15980339 C205.14847042 147.47273819 205.09757586 158.24865917 201.3125 169 C201.04703369 169.77255127 200.78156738 170.54510254 200.50805664 171.34106445 C197.32422528 180.31453315 192.95819658 188.55225427 187 196 C186.34 196 185.68 196 185 196 C184.938125 196.556875 184.87625 197.11375 184.8125 197.6875 C183.64327572 201.01529218 181.64677196 202.73133832 179 205 C178.01 205 177.02 205 176 205 C175.74476563 205.60328125 175.48953125 206.2065625 175.2265625 206.828125 C169.26045185 217.39232092 149.20973887 223.24778457 138.1875 226.4375 C136.9176123 226.8077832 136.9176123 226.8077832 135.62207031 227.18554688 C107.74760472 234.77882388 70.84395207 232.29186759 45.2578125 218.33984375 C44.51273437 217.89769531 43.76765625 217.45554687 43 217 C42.08992188 216.46503906 41.17984375 215.93007813 40.2421875 215.37890625 C34.43597607 211.82715021 28.64011583 208.03897965 24 203 C24 202.34 24 201.68 24 201 C23.09507812 200.60554688 23.09507812 200.60554688 22.171875 200.203125 C11.37313078 194.22108684 5.32984904 176.15923551 1.91015625 164.984375 C-0.4715707 155.51980009 -0.13947121 145.69111623 -0.11352539 136.00341797 C-0.11324279 134.51427716 -0.11340267 133.02513621 -0.1139679 131.53599548 C-0.11425304 127.52224044 -0.10840226 123.50851571 -0.10139394 119.49476767 C-0.0951131 115.28941091 -0.09455287 111.08405335 -0.09336853 106.87869263 C-0.0902691 98.92813435 -0.08207454 90.97758993 -0.07201904 83.02703774 C-0.06081465 73.97014815 -0.05533658 64.91325787 -0.05032361 55.85636306 C-0.03989068 37.23756593 -0.02156258 18.61878779 0 0 Z " fill="#000000" transform="translate(231,398)"/>
<path d="M0 0 C2.40659971 1.15179675 4.57694502 2.52317582 6.8203125 3.96875 C10.85133664 6.54385141 14.98059877 8.92559217 19.125 11.3125 C19.94742188 11.78840576 20.76984375 12.26431152 21.6171875 12.75463867 C26.80555666 15.75264456 32.01818879 18.70362496 37.25 21.625 C45.86867274 26.44156998 54.33312528 31.50771772 62.73828125 36.6875 C68.08666617 39.96306588 73.55619992 42.79942461 79.18359375 45.56640625 C82.22214743 47.11307643 85.10706954 48.76353406 87.92384338 50.68356323 C89.98620401 52.05531836 89.98620401 52.05531836 92.31016541 53.06692505 C95.03334149 54.46537855 96.92541059 55.73466977 99 58 C100.2671451 62.64513758 100.04943428 67.14503137 99.87890625 71.9296875 C99.86210158 73.28870413 99.84929915 74.64777561 99.84031677 76.00686646 C99.80609254 79.56922262 99.71782881 83.12822966 99.61798096 86.68927002 C99.5255967 90.32884406 99.48474272 93.96896425 99.43945312 97.609375 C99.34318232 104.74094645 99.18976384 111.87025363 99 119 C91.55024994 115.86637941 91.55024994 115.86637941 88.09765625 113.9140625 C87.10971069 113.3576709 87.10971069 113.3576709 86.10180664 112.79003906 C85.09234985 112.21334473 85.09234985 112.21334473 84.0625 111.625 C83.35665771 111.22506836 82.65081543 110.82513672 81.92358398 110.41308594 C77.80394659 108.06717469 73.74853087 105.6475489 69.75390625 103.09375 C67.14276491 101.46542132 64.45019298 99.9974104 61.75390625 98.515625 C44.31947933 88.92050777 44.31947933 88.92050777 37.23828125 84.3671875 C33.94321502 82.35449434 30.56150909 80.50147919 27.1875 78.625 C21.48682294 75.45160339 15.94899749 72.11211643 10.46484375 68.57421875 C8.04100473 67.02618844 5.60614722 65.51696561 3.125 64.0625 C2.44695312 63.66160156 1.76890625 63.26070313 1.0703125 62.84765625 C-1.60822709 61.75097117 -3.11353125 61.58465057 -6 62 C-8.49243741 63.29514646 -10.77430338 64.61222896 -13.125 66.125 C-14.46374482 66.95879828 -15.80359682 67.79082143 -17.14453125 68.62109375 C-17.80018066 69.02956543 -18.45583008 69.43803711 -19.13134766 69.85888672 C-21.64420971 71.39339381 -24.21666088 72.79885568 -26.8125 74.1875 C-31.00487546 76.43736718 -35.0763894 78.83249323 -39.140625 81.3046875 C-42.70283576 83.41670863 -46.31871267 85.42448361 -49.9375 87.4375 C-54.63992571 90.05475892 -59.24351844 92.73970019 -63.75 95.6875 C-68.40314496 98.71729213 -73.22066017 101.16953259 -78.2109375 103.59375 C-81.34276901 105.17282471 -84.26787011 106.95007452 -87.2109375 108.8515625 C-90.07150282 110.68782059 -93.03477678 112.3409607 -96 114 C-96.79277344 114.44859375 -97.58554688 114.8971875 -98.40234375 115.359375 C-99.62630859 116.04773438 -99.62630859 116.04773438 -100.875 116.75 C-101.63554687 117.17796875 -102.39609375 117.6059375 -103.1796875 118.046875 C-105 119 -105 119 -106 119 C-106 98.54 -106 78.08 -106 57 C-104.02 56.01 -102.04 55.02 -100 54 C-98.40538935 53.0818129 -96.82152889 52.14465602 -95.25 51.1875 C-93.95449219 50.40439453 -93.95449219 50.40439453 -92.6328125 49.60546875 C-90.93704659 48.57140378 -89.24409977 47.53269427 -87.5546875 46.48828125 C-82.10738029 43.15158664 -76.54525349 40.2487852 -70.8125 37.43359375 C-67.74784466 35.87147082 -64.87018917 34.14358308 -61.984375 32.27734375 C-58.89129839 30.2863279 -55.72464755 28.42045754 -52.56640625 26.53515625 C-50.88306167 25.52822411 -49.2032292 24.51539217 -47.52734375 23.49609375 C-42.24736067 20.29128627 -36.88733804 17.29482215 -31.44921875 14.3671875 C-28.86926482 12.97441275 -28.86926482 12.97441275 -26.0625 11 C-22.14719829 8.44306827 -18.01730097 6.48539754 -13.8046875 4.46484375 C-11.01726586 3.10845203 -11.01726586 3.10845203 -8.828125 1.3515625 C-5.76355899 -0.91412092 -3.72326703 -0.54047425 0 0 Z " fill="#A334F0" transform="translate(337,231)"/>
<path d="M0 0 C3.63 0 7.26 0 11 0 C13.64275834 2.64275834 15.23358295 4.98071051 17.015625 8.22265625 C17.87845607 9.78054568 18.80916317 11.30044081 19.75 12.8125 C21 15 21 15 21 17 C21.66 17 22.32 17 23 17 C23.33 18.65 23.66 20.3 24 22 C24.66 22 25.32 22 26 22 C30 28.75 30 28.75 30 31 C30.99 31 31.98 31 33 31 C33.10183594 30.2678125 33.20367188 29.535625 33.30859375 28.78125 C34.0749111 25.6986627 35.16237948 24.02772297 37.0625 21.5 C40.76280206 16.42638995 43.99157123 11.17414347 47.203125 5.78515625 C49 3 49 3 52 0 C55.3 0 58.6 0 62 0 C62 19.8 62 39.6 62 60 C58.37 60 54.74 60 51 60 C50.505 42.675 50.505 42.675 50 25 C44.82282745 32.38503999 44.82282745 32.38503999 40 40 C38.45259487 42.31725843 36.88093214 44.61635265 35.3046875 46.9140625 C33.85018769 49.05782408 33.85018769 49.05782408 33 52 C32.01 52 31.02 52 30 52 C27 47.77777778 27 47.77777778 27 45 C26.34 45 25.68 45 25 45 C23.2734375 42.4453125 23.2734375 42.4453125 21.375 39.125 C20.42753906 37.48917969 20.42753906 37.48917969 19.4609375 35.8203125 C18 33 18 33 18 31 C17.34 31 16.68 31 16 31 C15.01 29.02 14.02 27.04 13 25 C12.67 36.55 12.34 48.1 12 60 C8.04 60 4.08 60 0 60 C0 40.2 0 20.4 0 0 Z " fill="#000000" transform="translate(1627,398)"/>
<path d="M0 0 C14.19 0 28.38 0 43 0 C43 3.63 43 7.26 43 11 C38.05 11 33.1 11 28 11 C28 27.17 28 43.34 28 60 C23.71 60 19.42 60 15 60 C15 43.83 15 27.66 15 11 C10.05 11 5.1 11 0 11 C0 7.37 0 3.74 0 0 Z " fill="#000000" transform="translate(1575,398)"/>
</svg>
