<?xml version="1.0" encoding="UTF-8"?>
<svg version="1.1" xmlns="http://www.w3.org/2000/svg" width="225" height="225">
<path d="M0 0 C3.99177674 2.09737422 6.35694881 4.13222495 8.09375 8.28125 C10.07125276 15.0047594 7.87249185 19.2226817 5.09375 25.28125 C4.49003886 26.65270202 3.88865405 28.02517943 3.2890625 29.3984375 C-4.50579768 47.1909269 -12.92988839 64.68385085 -21.42303467 82.15065002 C-23.09884118 85.60128798 -24.75036427 89.0619919 -26.37890625 92.53515625 C-27.05449066 93.9506148 -27.73025092 95.36598944 -28.40625 96.78125 C-28.9528125 97.9465625 -29.499375 99.111875 -30.0625 100.3125 C-32.91223261 104.90105251 -36.04930431 107.74104762 -41.34375 109.28125 C-45.70716733 109.28125 -48.12336991 108.45290339 -51.90625 106.28125 C-56.65611495 101.38368057 -59.26790431 95.8791791 -62.09375 89.71875 C-62.53138672 88.78611328 -62.96902344 87.85347656 -63.41992188 86.89257812 C-66.65194266 79.96963895 -66.65194266 79.96963895 -67.91918945 76.53930664 C-68.68815358 74.12345486 -68.68815358 74.12345486 -70.90625 73.28125 C-71.23625 74.43625 -71.56625 75.59125 -71.90625 76.78125 C-74.9592452 85.98405849 -80.5734158 101.07111773 -88.28125 107.15625 C-92.59710973 109.00590417 -95.73865399 109.44804943 -100.40625 108.78125 C-109.17699863 105.02235773 -112.32520428 95.79059562 -115.96875 87.59375 C-116.52386451 86.36737577 -117.08020254 85.1415547 -117.63769531 83.91625977 C-118.80159698 81.35603644 -119.96015032 78.79348465 -121.11572266 76.22949219 C-122.91619845 72.24592869 -124.75566484 68.28116958 -126.60546875 64.3203125 C-126.9049794 63.67867661 -127.20449005 63.03704071 -127.51307678 62.3759613 C-128.68059548 59.87591015 -129.84890747 57.37623015 -131.0173645 54.87661743 C-131.8204692 53.156773 -132.62122627 51.4358329 -133.421875 49.71484375 C-133.87852539 48.73572021 -134.33517578 47.75659668 -134.80566406 46.74780273 C-136.76121871 42.36515663 -137.31330869 39.08454257 -136.90625 34.28125 C-134.63700515 29.99489862 -132.1488388 26.67923497 -127.90625 24.28125 C-123.30287501 23.60517677 -119.31996976 23.66658923 -115.03125 25.53125 C-114.33 26.10875 -113.62875 26.68625 -112.90625 27.28125 C-111.8853125 28.0546875 -111.8853125 28.0546875 -110.84375 28.84375 C-108.52131941 31.76551752 -107.48391834 34.59233589 -106.18359375 38.0703125 C-104.52431881 42.24133391 -102.63380732 46.28506673 -100.71875 50.34375 C-100.36135742 51.10647217 -100.00396484 51.86919434 -99.63574219 52.6550293 C-98.1393683 56.20934349 -98.1393683 56.20934349 -95.90625 59.28125 C-95.50833252 58.3934082 -95.11041504 57.50556641 -94.70043945 56.59082031 C-93.21339564 53.28229736 -91.70903838 49.98188948 -90.19946289 46.68359375 C-89.54989188 45.25799802 -88.90496607 43.83027581 -88.26489258 42.40039062 C-87.34123643 40.33920923 -86.40085634 38.28638506 -85.45703125 36.234375 C-85.17660477 35.59880676 -84.89617828 34.96323853 -84.60725403 34.30841064 C-82.36420587 29.497815 -79.64559112 26.65092056 -74.90625 24.28125 C-72.734375 24.04296875 -72.734375 24.04296875 -70.15625 23.96875 C-68.89554688 23.91267578 -68.89554688 23.91267578 -67.609375 23.85546875 C-63.8171188 24.4528039 -61.84840877 25.82354308 -58.90625 28.28125 C-57.37494667 30.74564657 -56.15305263 32.97872933 -54.96875 35.59375 C-54.4727832 36.63595703 -54.4727832 36.63595703 -53.96679688 37.69921875 C-52.93059107 39.88610644 -51.91798153 42.08294966 -50.90625 44.28125 C-50.21886753 45.74415746 -49.53008831 47.20640953 -48.83984375 48.66796875 C-47.17727703 52.19758021 -45.53606447 55.73640353 -43.90625 59.28125 C-41.18923556 54.98130242 -39.0389765 50.49973081 -36.88671875 45.90234375 C-36.50566483 45.09442886 -36.1246109 44.28651398 -35.73200989 43.45411682 C-34.51678486 40.8768168 -33.30501738 38.29791208 -32.09375 35.71875 C-29.38298154 29.95405705 -26.66477776 24.19308538 -23.92816162 18.44061279 C-22.99827993 16.47571496 -22.08285102 14.50477355 -21.17041016 12.53173828 C-20.4151001 10.94014893 -20.4151001 10.94014893 -19.64453125 9.31640625 C-19.22856689 8.42445557 -18.81260254 7.53250488 -18.3840332 6.61352539 C-14.31884598 0.19774255 -7.34274035 -2.76857423 0 0 Z " fill="#FA8D1B" transform="translate(166.90625,79.71875)"/>
<path d="M0 0 C3.99177674 2.09737422 6.35694881 4.13222495 8.09375 8.28125 C10.07125276 15.0047594 7.87249185 19.2226817 5.09375 25.28125 C4.49003886 26.65270202 3.88865405 28.02517943 3.2890625 29.3984375 C-3.15961493 44.11814024 -10.05050854 58.62102256 -17.03125 73.09375 C-17.3330719 73.71972076 -17.6348938 74.34569153 -17.94586182 74.9906311 C-21.543984 82.44880821 -25.17599731 89.88808157 -28.90625 97.28125 C-31.18024166 95.00725834 -31.19710859 94.34219272 -31.65625 91.28125 C-32.42227989 87.49332265 -33.64048764 84.78418238 -35.71875 81.53125 C-39.43303514 75.68536773 -44.27451645 67.90985376 -43.70703125 60.77734375 C-42.74076592 57.76542401 -41.52038537 55.0128305 -40.15625 52.15625 C-39.71357788 51.22462036 -39.71357788 51.22462036 -39.26196289 50.27416992 C-38.14978155 47.94009391 -37.02780598 45.61083605 -35.90625 43.28125 C-34.85792821 41.09251722 -33.80976281 38.90370953 -32.76171875 36.71484375 C-26.86107292 24.41421459 -26.86107292 24.41421459 -24.48779297 19.54541016 C-23.42185951 17.34542091 -22.37432922 15.13643145 -21.34423828 12.91943359 C-20.84005371 11.8567627 -20.33586914 10.7940918 -19.81640625 9.69921875 C-19.37562744 8.75199951 -18.93484863 7.80478027 -18.48071289 6.82885742 C-14.43758677 0.28675461 -7.47467039 -2.81831834 0 0 Z " fill="#FB8D1B" transform="translate(166.90625,79.71875)"/>
<path d="M0 0 C2.875 1.25 2.875 1.25 5 3 C6.0209375 3.7734375 6.0209375 3.7734375 7.0625 4.5625 C9.39134828 7.49234138 10.42978895 10.32549185 11.7265625 13.81640625 C13.6318078 18.5795195 15.90482945 23.16353406 18.18261719 27.75854492 C19.88445537 31.27586863 21.23445688 34.58359582 22.1171875 38.3984375 C22.67521462 42.02083713 22.67521462 42.02083713 25 44 C27.00639483 48.93238729 28.58959842 53.86210855 30 59 C30.7187318 61.96560029 30.7187318 61.96560029 32.5 63.375 C35.18491099 66.28365357 34.96637607 69.68617665 35.375 73.5 C35 77 35 77 32.9375 79.75 C29.07958574 82.70499816 25.79038425 85.0243489 20.76171875 84.98046875 C15.45570339 84.16896052 12.91136084 82.42386237 9.55541992 78.28417969 C6.38060664 73.62187344 4.22192646 68.45174965 1.9375 63.3125 C1.38238549 62.08612577 0.82604746 60.8603047 0.26855469 59.63500977 C-0.89534698 57.07478644 -2.05390032 54.51223465 -3.20947266 51.94824219 C-5.00994845 47.96467869 -6.84941484 43.99991958 -8.69921875 40.0390625 C-8.9987294 39.39742661 -9.29824005 38.75579071 -9.60682678 38.0947113 C-10.77434548 35.59466015 -11.94265747 33.09498015 -13.1111145 30.59536743 C-13.9142192 28.875523 -14.71497627 27.1545829 -15.515625 25.43359375 C-15.97227539 24.45447021 -16.42892578 23.47534668 -16.89941406 22.46655273 C-18.85496871 18.08390663 -19.40705869 14.80329257 -19 10 C-14.46374137 1.43151148 -9.45341831 -1.29477511 0 0 Z " fill="#03B4CC" transform="translate(49,104)"/>
<path d="M0 0 C0.66 0 1.32 0 2 0 C7.15515931 10.96350942 12.14308328 21.83619561 15.94287109 33.34936523 C17.62772986 38.31409044 19.90541747 42.42136716 22.73828125 46.80078125 C25.46655164 51.55624946 25.97099689 56.28881663 26.0625 61.6875 C24.58067667 66.30730214 22.12434045 68.54347053 18 71 C13.77412785 72.28285405 11.61046553 72.17892955 7.375 70.9375 C0.07790375 66.74842623 -2.7418501 59.94438824 -6.125 52.5625 C-6.55425781 51.64662109 -6.98351562 50.73074219 -7.42578125 49.78710938 C-8.25714119 48.00544108 -9.07890543 46.21925619 -9.88989258 44.42822266 C-10.57429299 42.93118143 -11.28069433 41.44370634 -12.0222168 39.97412109 C-13.39941067 37.14726974 -14.04942447 35.37042339 -13.62890625 32.21875 C-13.27699219 31.3215625 -12.92507812 30.424375 -12.5625 29.5 C-11.97855469 27.96666016 -11.97855469 27.96666016 -11.3828125 26.40234375 C-10.92648438 25.27957031 -10.47015625 24.15679687 -10 23 C-9.49522333 21.68963691 -8.99269675 20.37840527 -8.4921875 19.06640625 C-6.32607814 13.46559233 -4.14946177 8.13014311 -1 3 C-0.67 2.01 -0.34 1.02 0 0 Z " fill="#05B2C9" transform="translate(111,117)"/>
<path d="M0 0 C3.01624285 5.15503323 2.63890879 11.22778956 2 17 C1.10045598 19.47656889 0.0200716 21.71640559 -1.1953125 24.05078125 C-2.2615196 26.13400525 -2.2615196 26.13400525 -1.4375 29.0625 C-0.83091038 33.13531599 -2.37265 35.06040815 -4.48046875 38.4609375 C-4.98191406 38.96882813 -5.48335937 39.47671875 -6 40 C-10 40 -10 40 -12.25 38 C-12.8275 37.34 -13.405 36.68 -14 36 C-14.28875 36.94875 -14.5775 37.8975 -14.875 38.875 C-16 42 -16 42 -18 44 C-18.99 44 -19.98 44 -21 44 C-21 42.68 -21 41.36 -21 40 C-23.31 40 -25.62 40 -28 40 C-29 37 -29 37 -28.22265625 34.95703125 C-27.83980469 34.24933594 -27.45695313 33.54164062 -27.0625 32.8125 C-26.68222656 32.09707031 -26.30195313 31.38164063 -25.91015625 30.64453125 C-25.60980469 30.10183594 -25.30945313 29.55914062 -25 29 C-26.65 29 -28.3 29 -30 29 C-31.140625 27.2578125 -31.140625 27.2578125 -32 25 C-31.171875 22.9296875 -31.171875 22.9296875 -29.75 20.875 C-29.29109375 20.19179688 -28.8321875 19.50859375 -28.359375 18.8046875 C-25.56467942 15.09448819 -25.56467942 15.09448819 -23.0390625 14.671875 C-20.79647563 14.17060875 -20.79647563 14.17060875 -19.6484375 11.890625 C-19.22820312 11.01921875 -18.80796875 10.1478125 -18.375 9.25 C-15.52564625 4.196566 -12.64702054 2.09235252 -7.46484375 -0.35546875 C-4.48534201 -1.13457776 -2.86740915 -1.14599657 0 0 Z M-12 13 C-11.67 14.65 -11.34 16.3 -11 18 C-9.68 18 -8.36 18 -7 18 C-7 16.35 -7 14.7 -7 13 C-8.65 13 -10.3 13 -12 13 Z " fill="#F68E1E" transform="translate(192,37)"/>
<path d="M0 0 C0.33 1.32 0.66 2.64 1 4 C0.34 4 -0.32 4 -1 4 C-1 5.65 -1 7.3 -1 9 C-0.01 9.33 0.98 9.66 2 10 C2.33 9.01 2.66 8.02 3 7 C4.67110042 9.96178773 5.32682752 12.37071192 5.625 15.75 C5.69976562 16.54921875 5.77453125 17.3484375 5.8515625 18.171875 C5.90054688 18.77515625 5.94953125 19.3784375 6 20 C7.90850447 20.63350623 7.90850447 20.63350623 10 21 C11.77190909 19.64555699 11.77190909 19.64555699 13 18 C13.33 18.66 13.66 19.32 14 20 C12.1875 23 12.1875 23 10 26 C9.01 26 8.02 26 7 26 C7 24.68 7 23.36 7 22 C4.69 22 2.38 22 0 22 C-1 19 -1 19 -0.22265625 16.95703125 C0.16019531 16.24933594 0.54304687 15.54164062 0.9375 14.8125 C1.31777344 14.09707031 1.69804687 13.38164063 2.08984375 12.64453125 C2.39019531 12.10183594 2.69054687 11.55914062 3 11 C1.35 11 -0.3 11 -2 11 C-3.25 9.4375 -3.25 9.4375 -4 7 C-2.93237266 4.42998985 -1.53455057 2.3469597 0 0 Z " fill="#E39132" transform="translate(164,55)"/>
<path d="M0 0 C2.9375 1.5 2.9375 1.5 5 3 C4.38125 3.144375 3.7625 3.28875 3.125 3.4375 C0.96741678 3.93152225 0.96741678 3.93152225 -1 5 C-1.33 4.34 -1.66 3.68 -2 3 C-4.41645782 2.83312552 -4.41645782 2.83312552 -7 3 C-7.66 3.66 -8.32 4.32 -9 5 C-10.32 5 -11.64 5 -13 5 C-12.01 6.485 -12.01 6.485 -11 8 C-10.92094936 10.33199388 -10.91201231 12.66832622 -11 15 C-12.98 15.99 -12.98 15.99 -15 17 C-14.67 16.01 -14.34 15.02 -14 14 C-15.32 13.67 -16.64 13.34 -18 13 C-18 14.32 -18 15.64 -18 17 C-18.66 17 -19.32 17 -20 17 C-19.45035616 11.13713235 -16.1650003 5.97397087 -11.875 2.0625 C-7.89150738 -0.19481248 -4.50233472 -0.31050584 0 0 Z " fill="#F18D28" transform="translate(165,79)"/>
<path d="M0 0 C0.33 0 0.66 0 1 0 C1.24234375 0.88042969 1.4846875 1.76085937 1.734375 2.66796875 C2.06953125 3.82941406 2.4046875 4.99085938 2.75 6.1875 C3.07484375 7.33605469 3.3996875 8.48460937 3.734375 9.66796875 C4.83169239 13.07002001 4.83169239 13.07002001 7.140625 15.67578125 C9 18 9 18 9 22 C9.66 22 10.32 22 11 22 C11 23.32 11 24.64 11 26 C11.66 26 12.32 26 13 26 C13.33 27.65 13.66 29.3 14 31 C14.99 31 15.98 31 17 31 C16.39816251 33.02045442 15.72693904 35.02111039 15 37 C14.01 37.495 14.01 37.495 13 38 C12.85304687 37.32195312 12.70609375 36.64390625 12.5546875 35.9453125 C11.06248801 29.7535422 8.98335852 25.03130506 5.56640625 19.6875 C-1.5433913 7.48914411 -1.5433913 7.48914411 -0.62890625 1.6171875 C-0.42136719 1.08351562 -0.21382813 0.54984375 0 0 Z " fill="#AB9E5A" transform="translate(124,139)"/>
<path d="M0 0 C0.66 0 1.32 0 2 0 C2.67305018 1.60149886 3.33822227 3.20631029 4 4.8125 C4.37125 5.70582031 4.7425 6.59914062 5.125 7.51953125 C6 10 6 10 6 13 C6.66 13 7.32 13 8 13 C10.74375671 15.95481492 11 16.77471908 11 21 C11.66 21 12.32 21 13 21 C13.33 19.35 13.66 17.7 14 16 C14.66 16 15.32 16 16 16 C15.57405412 17.44096586 15.13373367 18.87768712 14.6875 20.3125 C14.44386719 21.11300781 14.20023438 21.91351563 13.94921875 22.73828125 C13 25 13 25 10 28 C9.34 24.37 8.68 20.74 8 17 C7.01 16.67 6.02 16.34 5 16 C2.5977774 12.46731971 1.95360541 8.10290733 1 4 C0.66884665 2.66612356 0.33613224 1.33263048 0 0 Z " fill="#D8933A" transform="translate(74,150)"/>
<path d="M0 0 C0.66 0 1.32 0 2 0 C2.67119549 1.4562545 3.33681807 2.91507867 4 4.375 C4.556875 5.59316406 4.556875 5.59316406 5.125 6.8359375 C6 9 6 9 6 11 C5.34 11 4.68 11 4 11 C4 10.34 4 9.68 4 9 C2.35 9.33 0.7 9.66 -1 10 C-1.268125 10.969375 -1.53625 11.93875 -1.8125 12.9375 C-2.204375 13.948125 -2.59625 14.95875 -3 16 C-3.99 16.33 -4.98 16.66 -6 17 C-6.33 17.66 -6.66 18.32 -7 19 C-6.45149941 14.39259504 -5.16621889 11.08248945 -3 7 C-1.96442706 4.68050406 -0.98373338 2.34222234 0 0 Z " fill="#35A29E" transform="translate(111,117)"/>
<path d="M0 0 C0.33 0.66 0.66 1.32 1 2 C-0.07421875 5.00390625 -0.07421875 5.00390625 -1.6875 8.5625 C-2.20699219 9.73941406 -2.72648438 10.91632813 -3.26171875 12.12890625 C-5 15 -5 15 -7.14453125 15.96484375 C-7.75683594 15.97644531 -8.36914062 15.98804688 -9 16 C-9.33 15.67 -9.66 15.34 -10 15 C-9.91062197 13.47480724 -9.75462854 11.95318071 -9.5625 10.4375 C-9.46066406 9.61121094 -9.35882813 8.78492188 -9.25390625 7.93359375 C-9.17011719 7.29550781 -9.08632812 6.65742188 -9 6 C-9.66 5.67 -10.32 5.34 -11 5 C-10.01 4.67 -9.02 4.34 -8 4 C-6.68 5.32 -5.36 6.64 -4 8 C-4 7.01 -4 6.02 -4 5 C-3.34 5 -2.68 5 -2 5 C-2 3.68 -2 2.36 -2 1 C-1.34 0.67 -0.68 0.34 0 0 Z " fill="#F78C1D" transform="translate(147,155)"/>
<path d="M0 0 C4.53188168 5.65494274 7.56336455 12.51168974 9.1875 19.5625 C9.69215918 23.04248777 9.69215918 23.04248777 12 25 C12.39764263 26.98821313 12.73775349 28.98944339 13 31 C12.34 31 11.68 31 11 31 C8.51576805 26.36276702 6.75298763 22.3865482 5.63671875 17.21484375 C4.55530806 13.45312681 2.75372998 10.01621672 1.0234375 6.515625 C0 4 0 4 0 0 Z " fill="#299CA9" transform="translate(62,123)"/>
<path d="M0 0 C1.59791664 3.19583328 0.19673265 5.68166244 -0.83203125 8.98046875 C-3.00478364 14.59765135 -6.0145544 19.78160467 -9 25 C-10.13315882 21.60052355 -9.86787136 20.92652852 -8.6875 17.6875 C-8.26017578 16.49833984 -8.26017578 16.49833984 -7.82421875 15.28515625 C-7.55222656 14.53105469 -7.28023438 13.77695313 -7 13 C-6.67 11.88625 -6.34 10.7725 -6 9.625 C-4.9780546 6.94239333 -4.06994734 5.89745173 -2 4 C-0.82425289 1.90010348 -0.82425289 1.90010348 0 0 Z " fill="#C49845" transform="translate(100,140)"/>
<path d="M0 0 C1.53515625 1.84375 1.53515625 1.84375 3 4 C2.29460681 7.13508084 1.34391226 8.67758225 -1 10.875 C-3.61948553 13.65820337 -4.1521299 16.32589625 -5 20 C-5.33 20 -5.66 20 -6 20 C-7.52612886 14.57932371 -6.18279275 11.35238315 -3.5625 6.625 C-3.22412109 5.98433594 -2.88574219 5.34367188 -2.53710938 4.68359375 C-1.70581674 3.11467525 -0.85484897 1.55620884 0 0 Z " fill="#ED9422" transform="translate(131,124)"/>
<path d="M0 0 C2.75169953 2.21911252 3.91282562 3.72758007 5 7.125 C5 12.363671 3.19878665 16.30988427 1 21 C0.67 21 0.34 21 0 21 C-0.125 14.25 -0.125 14.25 1 12 C1.66 12 2.32 12 3 12 C3 11.34 3 10.68 3 10 C2.34 10 1.68 10 1 10 C1.020625 8.906875 1.04125 7.81375 1.0625 6.6875 C1.18544452 3.05615809 1.18544452 3.05615809 0 0 Z " fill="#E99437" transform="translate(171,84)"/>
<path d="M0 0 C2.9375 1.5 2.9375 1.5 5 3 C4.38125 3.144375 3.7625 3.28875 3.125 3.4375 C0.96741678 3.93152225 0.96741678 3.93152225 -1 5 C-1.33 4.34 -1.66 3.68 -2 3 C-4.41645782 2.83312552 -4.41645782 2.83312552 -7 3 C-7.66 3.66 -8.32 4.32 -9 5 C-10.98821313 5.39764263 -12.98944339 5.73775349 -15 6 C-10.06183724 0.79490953 -7.22795202 -0.49847945 0 0 Z " fill="#E39236" transform="translate(165,79)"/>
<path d="M0 0 C0 0.66 0 1.32 0 2 C-0.99 2.33 -1.98 2.66 -3 3 C-3 4.32 -3 5.64 -3 7 C-3.99 7.66 -4.98 8.32 -6 9 C-6.72382467 11.05925139 -6.72382467 11.05925139 -7 13 C-7.66 13 -8.32 13 -9 13 C-9.33 14.32 -9.66 15.64 -10 17 C-10.66 17 -11.32 17 -12 17 C-7.01333333 0 -7.01333333 0 0 0 Z " fill="#E39430" transform="translate(92,105)"/>
<path d="M0 0 C2.33936818 2.12669835 3.80653848 4.06224856 5 7 C5 7.99 5 8.98 5 10 C5.66 10 6.32 10 7 10 C7.73612138 11.7064632 8.47073009 13.41360535 9.1953125 15.125 C9.85311606 16.65774616 10.54657936 18.17514563 11.25 19.6875 C12.10367444 22.31966286 11.7636166 23.40915798 11 26 C9.16055374 22.04447897 7.32948447 18.08513715 5.5 14.125 C4.71302734 12.43310547 4.71302734 12.43310547 3.91015625 10.70703125 C3.16572266 9.09248047 3.16572266 9.09248047 2.40625 7.4453125 C1.94541016 6.45031738 1.48457031 5.45532227 1.00976562 4.43017578 C0 2 0 2 0 0 Z " fill="#1FA0B0" transform="translate(46,154)"/>
<path d="M0 0 C3.47188326 3.00896549 5.19430483 5.43439405 6 10 C4.8125 13.5 4.8125 13.5 3 17 C2.443125 18.134375 1.88625 19.26875 1.3125 20.4375 C0.879375 21.283125 0.44625 22.12875 0 23 C-0.33 23 -0.66 23 -1 23 C-1.1875 20.125 -1.1875 20.125 -1 17 C-0.01 16.34 0.98 15.68 2 15 C2.84379768 9.87370229 2.46479466 4.62149 0 0 Z " fill="#C39144" transform="translate(106,107)"/>
<path d="M0 0 C0.66 0 1.32 0 2 0 C2.84069415 1.60032137 3.67231505 3.20541171 4.5 4.8125 C4.9640625 5.70582031 5.428125 6.59914062 5.90625 7.51953125 C7 10 7 10 7 13 C7.66 13 8.32 13 9 13 C9.53190541 14.43344 10.05015258 15.87195367 10.5625 17.3125 C10.85253906 18.11300781 11.14257812 18.91351563 11.44140625 19.73828125 C12 22 12 22 11 25 C9.53588495 21.96108388 8.07976411 18.91840221 6.625 15.875 C6.2125 15.0190625 5.8 14.163125 5.375 13.28125 C3.29316791 8.91611821 1.38675593 4.64791824 0 0 Z " fill="#25A1B2" transform="translate(98,153)"/>
<path d="M0 0 C0.33 0 0.66 0 1 0 C1.28718788 3.254796 1.08906111 4.83672129 -0.5 7.75 C-2.44288234 11.95957841 -2.27335792 15.44403468 -2 20 C-4.0625 18.3125 -4.0625 18.3125 -6 16 C-5.62039205 12.04123136 -4.11636205 8.76046283 -2.4375 5.1875 C-1.98246094 4.21167969 -1.52742188 3.23585937 -1.05859375 2.23046875 C-0.70925781 1.49441406 -0.35992187 0.75835937 0 0 Z " fill="#C0954E" transform="translate(76,128)"/>
<path d="M0 0 C0.66 0 1.32 0 2 0 C2.12375 1.11375 2.2475 2.2275 2.375 3.375 C2.6465813 7.03103677 2.6465813 7.03103677 5 9 C4.67 9.66 4.34 10.32 4 11 C4.66 11 5.32 11 6 11 C6.33 13.64 6.66 16.28 7 19 C2.95828518 14.35202796 0.18047971 8.57183589 -0.25 2.4375 C-0.1675 1.633125 -0.085 0.82875 0 0 Z " fill="#1D9FB4" transform="translate(30,115)"/>
<path d="M0 0 C0.33 0 0.66 0 1 0 C2.86175694 10.30736341 2.86175694 10.30736341 0.80078125 14.35546875 C-0.71031328 16.12999865 -2.10752611 17.63933523 -4 19 C-4.66 19 -5.32 19 -6 19 C-6 18.34 -6 17.68 -6 17 C-5.34 16.67 -4.68 16.34 -4 16 C-2.86649466 13.98330173 -2.86649466 13.98330173 -2 12 C-1.34 12 -0.68 12 0 12 C0 8.04 0 4.08 0 0 Z " fill="#269FA6" transform="translate(135,168)"/>
<path d="M0 0 C0.66 0 1.32 0 2 0 C2.67305018 1.60149886 3.33822227 3.20631029 4 4.8125 C4.37125 5.70582031 4.7425 6.59914062 5.125 7.51953125 C6 10 6 10 6 13 C6.66 13 7.32 13 8 13 C8 14.32 8 15.64 8 17 C5 16 5 16 3.9375 14.4375 C2.62743365 11.03132749 1.82500132 7.5495855 1 4 C0.66884665 2.66612356 0.33613224 1.33263048 0 0 Z " fill="#71A27E" transform="translate(74,150)"/>
<path d="M0 0 C0.33 0 0.66 0 1 0 C0.88637738 1.4800841 0.75877092 2.95910074 0.625 4.4375 C0.55539063 5.26121094 0.48578125 6.08492188 0.4140625 6.93359375 C0.27742187 7.61550781 0.14078125 8.29742187 0 9 C-0.99 9.495 -0.99 9.495 -2 10 C-3.13350534 12.01669827 -3.13350534 12.01669827 -4 14 C-4.66 14 -5.32 14 -6 14 C-4.50829734 9.0276578 -2.39542583 4.58154261 0 0 Z " fill="#E39138" transform="translate(138,109)"/>
<path d="M0 0 C0.94875 0.61875 1.8975 1.2375 2.875 1.875 C7.33126858 4.45542657 11.95991248 5.22928239 17 6 C13.84335948 7.90833268 12.08679446 8.19799736 8.5 7.375 C4.68025002 6.40590363 2.36611457 5.29198548 0 2 C0 1.34 0 0.68 0 0 Z " fill="#1798A4" transform="translate(59,181)"/>
<path d="M0 0 C0.33 0.66 0.66 1.32 1 2 C0.10333658 4.24310013 -0.89146683 6.44754321 -1.9375 8.625 C-2.50339844 9.81351563 -3.06929687 11.00203125 -3.65234375 12.2265625 C-4.09707031 13.14179688 -4.54179687 14.05703125 -5 15 C-7 11.25 -7 11.25 -7 9 C-6.01 9 -5.02 9 -4 9 C-4 7.68 -4 6.36 -4 5 C-3.34 5 -2.68 5 -2 5 C-2 3.68 -2 2.36 -2 1 C-1.34 0.67 -0.68 0.34 0 0 Z " fill="#E5923A" transform="translate(147,155)"/>
<path d="M0 0 C0.66 0.66 1.32 1.32 2 2 C0.37660195 3.70884005 -1.29319053 5.37446717 -3 7 C-3.66 7 -4.32 7 -5 7 C-5.33 5.35 -5.66 3.7 -6 2 C-4.02 2 -2.04 2 0 2 C0 1.34 0 0.68 0 0 Z " fill="#10A7B2" transform="translate(81,180)"/>
<path d="M0 0 C5 7.5 5 7.5 5 11 C3.68 11 2.36 11 1 11 C0.67 7.37 0.34 3.74 0 0 Z " fill="#19A1B8" transform="translate(57,112)"/>
<path d="M0 0 C-0.1875 1.875 -0.1875 1.875 -1 4 C-3.5625 5.25 -3.5625 5.25 -6 6 C-6 6.99 -6 7.98 -6 9 C-6.66 9 -7.32 9 -8 9 C-6.68994234 5.06982701 -4.75047804 0 0 0 Z " fill="#18A3B5" transform="translate(39,105)"/>
<path d="M0 0 C3.55007718 3.9050849 4.81819916 6.97734643 6 12 C5.34 12 4.68 12 4 12 C3.32332002 10.75539217 2.65905281 9.50403104 2 8.25 C1.62875 7.55390625 1.2575 6.8578125 0.875 6.140625 C0 4 0 4 0 0 Z " fill="#24AAA9" transform="translate(69,142)"/>
<path d="M0 0 C1.98 0 3.96 0 6 0 C4.25 5.75 4.25 5.75 2 8 C1.34 5.36 0.68 2.72 0 0 Z " fill="#EB902E" transform="translate(146,146)"/>
<path d="M0 0 C0.33 0 0.66 0 1 0 C1.08160748 1.89510699 1.13946459 3.79124504 1.1875 5.6875 C1.22230469 6.74324219 1.25710937 7.79898438 1.29296875 8.88671875 C0.96666615 12.35422768 -0.00969875 14.18432448 -2 17 C-2.33 16.34 -2.66 15.68 -3 15 C-2.71125 14.34 -2.4225 13.68 -2.125 13 C-0.53228463 8.75275902 -0.33200418 4.49953031 0 0 Z " fill="#DF9041" transform="translate(193,42)"/>
<path d="M0 0 C1.65 0 3.3 0 5 0 C4.39816251 2.02045442 3.72693904 4.02111039 3 6 C2.01 6.495 2.01 6.495 1 7 C0.67 4.69 0.34 2.38 0 0 Z " fill="#B4A25F" transform="translate(136,170)"/>
<path d="M0 0 C0.33 0.66 0.66 1.32 1 2 C-0.8125 5 -0.8125 5 -3 8 C-3.99 8 -4.98 8 -6 8 C-5.67 6.68 -5.34 5.36 -5 4 C-5 4.66 -5 5.32 -5 6 C-4.34 6 -3.68 6 -3 6 C-2.87625 5.195625 -2.7525 4.39125 -2.625 3.5625 C-2.41875 2.716875 -2.2125 1.87125 -2 1 C-1.34 0.67 -0.68 0.34 0 0 Z " fill="#DB9644" transform="translate(177,73)"/>
<path d="M0 0 C0.33 0 0.66 0 1 0 C1.25 2.75 1.25 2.75 1 6 C-1 8.375 -1 8.375 -3 10 C-3.33 9.34 -3.66 8.68 -4 8 C-3.22265625 6.0546875 -3.22265625 6.0546875 -2.0625 3.875 C-1.49208984 2.78832031 -1.49208984 2.78832031 -0.91015625 1.6796875 C-0.60980469 1.12539062 -0.30945313 0.57109375 0 0 Z " fill="#E1903A" transform="translate(131,124)"/>
<path d="M0 0 C0.99 0.495 0.99 0.495 2 1 C2.33333333 2.33333333 2.66666667 3.66666667 3 5 C3.66 5.33 4.32 5.66 5 6 C4.34 7.65 3.68 9.3 3 11 C0.87953208 7.46588679 0.46800711 4.05606165 0 0 Z " fill="#8AA078" transform="translate(82,167)"/>
<path d="M0 0 C0.66 0 1.32 0 2 0 C2 0.66 2 1.32 2 2 C2.66 2 3.32 2 4 2 C4.33 4.64 4.66 7.28 5 10 C2.35534962 6.8745041 1.15585285 3.91211733 0 0 Z " fill="#1BA5B3" transform="translate(41,144)"/>
<path d="M0 0 C0.99 0 1.98 0 3 0 C3.66 2.31 4.32 4.62 5 7 C3.0625 6.3125 3.0625 6.3125 1 5 C0.25 2.375 0.25 2.375 0 0 Z " fill="#E59428" transform="translate(177,50)"/>
<path d="M0 0 C2.475 0.495 2.475 0.495 5 1 C5 1.66 5 2.32 5 3 C5.99 3 6.98 3 8 3 C8 3.66 8 4.32 8 5 C6.68 5 5.36 5 4 5 C1.75 2.5 1.75 2.5 0 0 Z " fill="#E29B39" transform="translate(178,72)"/>
<path d="" fill="#FFFFFF" transform="translate(0,0)"/>
<path d="" fill="#FFFFFF" transform="translate(0,0)"/>
<path d="" fill="#FFFFFF" transform="translate(0,0)"/>
<path d="" fill="#FFFFFF" transform="translate(0,0)"/>
<path d="" fill="#FFFFFF" transform="translate(0,0)"/>
<path d="" fill="#FFFFFF" transform="translate(0,0)"/>
<path d="" fill="#FFFFFF" transform="translate(0,0)"/>
<path d="" fill="#FFFFFF" transform="translate(0,0)"/>
<path d="" fill="#FFFFFF" transform="translate(0,0)"/>
<path d="" fill="#FFFFFF" transform="translate(0,0)"/>
<path d="" fill="#FFFFFF" transform="translate(0,0)"/>
<path d="" fill="#FFFFFF" transform="translate(0,0)"/>
<path d="" fill="#FFFFFF" transform="translate(0,0)"/>
<path d="" fill="#FFFFFF" transform="translate(0,0)"/>
<path d="" fill="#FFFFFF" transform="translate(0,0)"/>
<path d="" fill="#FFFFFF" transform="translate(0,0)"/>
<path d="" fill="#FFFFFF" transform="translate(0,0)"/>
<path d="" fill="#FFFFFF" transform="translate(0,0)"/>
<path d="" fill="#FFFFFF" transform="translate(0,0)"/>
<path d="" fill="#FFFFFF" transform="translate(0,0)"/>
<path d="" fill="#FFFFFF" transform="translate(0,0)"/>
<path d="" fill="#FFFFFF" transform="translate(0,0)"/>
<path d="" fill="#FFFFFF" transform="translate(0,0)"/>
<path d="" fill="#FFFFFF" transform="translate(0,0)"/>
<path d="" fill="#FFFFFF" transform="translate(0,0)"/>
<path d="" fill="#FFFFFF" transform="translate(0,0)"/>
<path d="" fill="#FFFFFF" transform="translate(0,0)"/>
<path d="" fill="#FFFFFF" transform="translate(0,0)"/>
<path d="" fill="#FFFFFF" transform="translate(0,0)"/>
<path d="" fill="#FFFFFF" transform="translate(0,0)"/>
<path d="" fill="#FFFFFF" transform="translate(0,0)"/>
<path d="" fill="#FFFFFF" transform="translate(0,0)"/>
<path d="" fill="#FFFFFF" transform="translate(0,0)"/>
<path d="" fill="#FFFFFF" transform="translate(0,0)"/>
<path d="" fill="#FFFFFF" transform="translate(0,0)"/>
<path d="" fill="#FFFFFF" transform="translate(0,0)"/>
<path d="" fill="#FFFFFF" transform="translate(0,0)"/>
<path d="" fill="#FFFFFF" transform="translate(0,0)"/>
<path d="" fill="#FFFFFF" transform="translate(0,0)"/>
<path d="" fill="#FFFFFF" transform="translate(0,0)"/>
<path d="" fill="#FFFFFF" transform="translate(0,0)"/>
<path d="" fill="#FFFFFF" transform="translate(0,0)"/>
<path d="" fill="#FFFFFF" transform="translate(0,0)"/>
<path d="" fill="#FFFFFF" transform="translate(0,0)"/>
<path d="" fill="#FFFFFF" transform="translate(0,0)"/>
<path d="" fill="#FFFFFF" transform="translate(0,0)"/>
<path d="" fill="#FFFFFF" transform="translate(0,0)"/>
<path d="" fill="#FFFFFF" transform="translate(0,0)"/>
<path d="" fill="#FFFFFF" transform="translate(0,0)"/>
<path d="" fill="#FFFFFF" transform="translate(0,0)"/>
<path d="" fill="#FFFFFF" transform="translate(0,0)"/>
<path d="" fill="#FFFFFF" transform="translate(0,0)"/>
</svg>
