<svg width="400" height="300" viewBox="0 0 400 300" fill="none" xmlns="http://www.w3.org/2000/svg">
  <rect width="400" height="300" fill="url(#puzzle-gradient)"/>
  <rect x="50" y="50" width="300" height="200" rx="10" fill="white" opacity="0.9"/>
  <rect x="80" y="80" width="60" height="60" rx="5" fill="#3B82F6" opacity="0.8"/>
  <rect x="150" y="80" width="60" height="60" rx="5" fill="#EF4444" opacity="0.8"/>
  <rect x="220" y="80" width="60" height="60" rx="5" fill="#10B981" opacity="0.8"/>
  <rect x="80" y="150" width="60" height="60" rx="5" fill="#F59E0B" opacity="0.8"/>
  <rect x="150" y="150" width="60" height="60" rx="5" fill="#8B5CF6" opacity="0.8"/>
  <rect x="220" y="150" width="60" height="60" rx="5" fill="#EC4899" opacity="0.8"/>
  <circle cx="110" cy="110" r="15" fill="white" opacity="0.9"/>
  <circle cx="180" cy="110" r="15" fill="white" opacity="0.9"/>
  <circle cx="250" cy="110" r="15" fill="white" opacity="0.9"/>
  <circle cx="110" cy="180" r="15" fill="white" opacity="0.9"/>
  <circle cx="180" cy="180" r="15" fill="white" opacity="0.9"/>
  <circle cx="250" cy="180" r="15" fill="white" opacity="0.9"/>
  <text x="200" y="240" text-anchor="middle" fill="#374151" font-family="Arial, sans-serif" font-size="16" font-weight="bold">Puzzle Master Collection</text>
  <defs>
    <linearGradient id="puzzle-gradient" x1="0%" y1="0%" x2="100%" y2="100%">
      <stop offset="0%" style="stop-color:#06B6D4;stop-opacity:1" />
      <stop offset="100%" style="stop-color:#3B82F6;stop-opacity:1" />
    </linearGradient>
  </defs>
</svg>
