<svg width="400" height="300" viewBox="0 0 400 300" fill="none" xmlns="http://www.w3.org/2000/svg">
  <rect width="400" height="300" fill="url(#coding-gradient)"/>
  <rect x="50" y="50" width="300" height="200" rx="10" fill="white" opacity="0.9"/>
  <rect x="70" y="70" width="40" height="40" rx="5" fill="#3B82F6"/>
  <rect x="120" y="70" width="40" height="40" rx="5" fill="#EF4444"/>
  <rect x="170" y="70" width="40" height="40" rx="5" fill="#10B981"/>
  <rect x="220" y="70" width="40" height="40" rx="5" fill="#F59E0B"/>
  <rect x="270" y="70" width="40" height="40" rx="5" fill="#8B5CF6"/>
  <path d="M70 130 L120 130 L120 160 L170 160 L170 190 L220 190" stroke="#374151" stroke-width="3" fill="none"/>
  <circle cx="70" cy="130" r="4" fill="#374151"/>
  <circle cx="120" cy="160" r="4" fill="#374151"/>
  <circle cx="170" cy="190" r="4" fill="#374151"/>
  <circle cx="220" cy="190" r="4" fill="#374151"/>
  <text x="200" y="230" text-anchor="middle" fill="#374151" font-family="Arial, sans-serif" font-size="16" font-weight="bold">Educational Coding Game</text>
  <defs>
    <linearGradient id="coding-gradient" x1="0%" y1="0%" x2="100%" y2="100%">
      <stop offset="0%" style="stop-color:#8B5CF6;stop-opacity:1" />
      <stop offset="100%" style="stop-color:#EC4899;stop-opacity:1" />
    </linearGradient>
  </defs>
</svg>
